<svg xmlns="http://www.w3.org/2000/svg" xml:space="preserve" width="800" height="800" viewBox="0 0 512 512" fill="currentColor" ><path d="m345.498 33.391 60.68 45.617 20.065-26.69L356.65 0H116.837v33.391h50.298v41.804h-31.498v78.978c-44.01 12.215-76.408 52.63-76.408 100.477V512h316.057V254.649c0-47.846-32.4-88.262-76.409-100.477V75.195h-31.499V33.391z"/><path d="M429.775 111.144a406 406 0 0 1-2.886-3.716l-10.68-14.01-10.682 14.009a376 376 0 0 1-2.884 3.715c-9.159 11.706-23 29.396-23 48.27 0 20.161 16.403 36.563 36.563 36.563s36.563-16.402 36.563-36.563c.004-18.875-13.835-36.563-22.994-48.268"/></svg>