<svg xmlns="http://www.w3.org/2000/svg" width="800" height="800" viewBox="0 0 32 32" fill="currentColor"><title>rainbow</title><path d="M16 8.25a14 14 0 0 0-.628-.014c-7.807 0-14.136 6.329-14.136 14.136q0 .331.015.659L1.25 23a.75.75 0 0 0 1.5 0 12 12 0 0 1-.013-.563c0-7.014 5.686-12.699 12.699-12.699q.297 0 .591.014l-.028-.001c.168-.008.365-.012.563-.012 7.014 0 12.7 5.686 12.7 12.7q0 .297-.014.591l.001-.028a.75.75 0 0 0 1.5 0c.009-.187.014-.407.014-.627 0-7.808-6.329-14.137-14.137-14.137q-.331 0-.658.015l.031-.001zm0 4a9 9 0 0 0-.346-.006c-5.749 0-10.409 4.66-10.409 10.409q0 .183.006.364v-.018a.75.75 0 0 0 1.5 0 8.865 8.865 0 0 1 9.269-9.249l-.019-.001.147-.001c2.386 0 4.568.875 6.242 2.322l-.012-.01a8.95 8.95 0 0 1 2.872 6.957l.001-.018a.75.75 0 0 0 1.5 0c.004-.103.006-.225.006-.346 0-5.749-4.66-10.409-10.409-10.409q-.183 0-.364.006h.018zm0 4-.218-.004a6.536 6.536 0 0 0-6.532 6.765V23a.75.75 0 0 0 1.5 0 5.032 5.032 0 0 1 5.261-5.25H16l.089-.001c1.355 0 2.594.496 3.544 1.317l-.007-.006a5.08 5.08 0 0 1 1.622 3.95V23a.75.75 0 0 0 1.5 0l.004-.217a6.536 6.536 0 0 0-6.764-6.532zM13.25 23a.75.75 0 0 0 1.5 0 1.25 1.25 0 0 1 2.5 0 .75.75 0 0 0 1.5 0 2.75 2.75 0 0 0-5.5-.002z"/></svg>