<svg xmlns="http://www.w3.org/2000/svg" width="800" height="800" viewBox="0 0 800 800" fill="currentColor"><defs><clipPath id="a" clipPathUnits="userSpaceOnUse"><path d="M0 0h794v1049H0Z" clip-rule="evenodd"/></clipPath><clipPath id="b" clipPathUnits="userSpaceOnUse"><path d="M-389.789-95.544h512v512h-512z" clip-rule="evenodd"/></clipPath><clipPath id="c" clipPathUnits="userSpaceOnUse"><path d="M-270.77-82.676h512v512h-512z" clip-rule="evenodd"/></clipPath><clipPath id="d" clipPathUnits="userSpaceOnUse"><path d="M-136.781-210.093h512v512h-512z" clip-rule="evenodd"/></clipPath><clipPath id="e" clipPathUnits="userSpaceOnUse"><path d="M-416.96-250.273h512v512h-512z" clip-rule="evenodd"/></clipPath><clipPath id="f" clipPathUnits="userSpaceOnUse"><path d="M-271.89-266.742h512v512h-512z" clip-rule="evenodd"/></clipPath><clipPath id="g" clipPathUnits="userSpaceOnUse"><path d="M-271.89-130.742h512v512h-512z" clip-rule="evenodd"/></clipPath><clipPath id="h" clipPathUnits="userSpaceOnUse"><path d="M-316-400h512v512h-512z" clip-rule="evenodd"/></clipPath><clipPath id="i" clipPathUnits="userSpaceOnUse"><path d="M-196-384h512v512h-512z" clip-rule="evenodd"/></clipPath><clipPath id="j" clipPathUnits="userSpaceOnUse"><path d="M-97.844-311.414h512v512h-512z" clip-rule="evenodd"/></clipPath><clipPath id="k" clipPathUnits="userSpaceOnUse"><path d="M-185.844-199.414h512v512h-512z" clip-rule="evenodd"/></clipPath><clipPath id="l" clipPathUnits="userSpaceOnUse"><path d="M-172-136h512v512h-512z" clip-rule="evenodd"/></clipPath><clipPath id="m" clipPathUnits="userSpaceOnUse"><path d="M-308-368h512v512h-512z" clip-rule="evenodd"/></clipPath><clipPath id="n" clipPathUnits="userSpaceOnUse"><path d="M-148-360h512v512h-512z" clip-rule="evenodd"/></clipPath><clipPath id="o" clipPathUnits="userSpaceOnUse"><path d="M-316-272h512v512h-512z" clip-rule="evenodd"/></clipPath><clipPath id="p" clipPathUnits="userSpaceOnUse"><path d="M-212-264h512v512h-512z" clip-rule="evenodd"/></clipPath><clipPath id="q" clipPathUnits="userSpaceOnUse"><path d="M-268-232h512v512h-512z" clip-rule="evenodd"/></clipPath><clipPath id="r" clipPathUnits="userSpaceOnUse"><path d="M-420-200H92v512h-512z" clip-rule="evenodd"/></clipPath><clipPath id="s" clipPathUnits="userSpaceOnUse"><path d="M-124-160h512v512h-512z" clip-rule="evenodd"/></clipPath><clipPath id="t" clipPathUnits="userSpaceOnUse"><path d="M-188-96h512v512h-512z" clip-rule="evenodd"/></clipPath><clipPath id="u" clipPathUnits="userSpaceOnUse"><path d="M-316-88h512v512h-512z" clip-rule="evenodd"/></clipPath></defs><g style="fill:none"><path d="M0 0h794v720H0Z" style="fill:none;fill-opacity:1;fill-rule:nonzero;stroke:none" transform="translate(0 37)"/></g><path d="M0 0h794v720H0Z" clip-path="url(#a)" style="fill:none;fill-opacity:1;fill-rule:nonzero;stroke:none" transform="translate(0 37)"/><path d="m0 0 2.927.002c24.074.062 46.678 3.402 69.76 10.373l2.531.76c32.615 10.045 62.553 28.03 87.47 51.24A746 746 0 0 0 166.875 66c6.5 5.693 12.1 11.774 17.508 18.52a205 205 0 0 0 4.422 5.304c31.645 36.92 51.677 89.43 52.12 138.106l.03 2.7c.173 19.933-.093 39.165-4.268 58.745l-.55 2.678c-3.294 15.597-8.453 30.893-14.66 45.564-2.82 7.002-3.193 14.307-.907 21.559 2.044 4.35 4.664 7.974 7.68 11.699 7.01 8.77 8.68 17.364 7.437 28.5-2.955 12.698-14.148 21.333-22.996 30.234l-1.722 1.735a6832 6832 0 0 1-9.014 9.059c-3.09 3.1-6.167 6.212-9.242 9.327-2.384 2.41-4.778 4.812-7.173 7.211a799 799 0 0 0-3.405 3.44c-8.768 8.903-16.042 15.032-29.073 15.306-11.441-.141-17.748-4.394-26.644-11.25-6.627-5.005-13.179-6.429-21.42-5.51-6.99 1.356-13.62 4.44-20.209 7.061-26.75 10.63-54.761 14.823-83.414 14.762l-2.927-.002c-24.074-.062-46.678-3.402-69.76-10.373l-2.531-.76c-32.615-10.045-62.553-28.03-87.47-51.24a747 747 0 0 0-4.187-3.625c-6.494-5.688-12.088-11.765-17.496-18.5a293 293 0 0 0-4.54-5.5c-10.708-12.692-19.07-26.71-26.777-41.375l-1.053-1.972c-11.17-21.15-18.252-45.48-21.947-69.028l-.553-3.502c-1.6-11.27-1.845-22.439-1.822-33.81l.001-2.925c.035-15.906 1.048-31.162 4.374-46.763l.552-2.678c3.126-14.805 8.131-29.117 13.565-43.22 3.055-8.027 4.73-15.39 2-23.832-2.048-4.375-4.644-8.029-7.679-11.77-7.01-8.77-8.68-17.364-7.438-28.5 2.956-12.698 14.15-21.333 22.997-30.234l1.722-1.735q4.503-4.533 9.014-9.059c3.09-3.1 6.167-6.212 9.242-9.327 2.384-2.41 4.778-4.812 7.173-7.211a800 800 0 0 0 3.405-3.44c8.768-8.903 16.042-15.032 29.072-15.307 11.442.142 17.75 4.395 26.645 11.25 6.627 5.006 13.179 6.43 21.42 5.511 6.99-1.356 13.62-4.44 20.209-7.061C-56.664 4.132-28.653-.061 0 0m-91.793 35.992c-10.695 4.202-24.158 3.884-34.836-.277-5.745-2.868-10.649-6.695-15.621-10.715-3.437-2.708-6.56-2.783-10.832-2.953-5.808.854-9.855 4.514-13.837 8.546l-1.589 1.573a1068 1068 0 0 0-5.133 5.139l-3.592 3.583q-3.753 3.748-7.494 7.51a2482 2482 0 0 1-9.61 9.6q-3.708 3.693-7.402 7.402-1.769 1.771-3.545 3.537a950 950 0 0 0-4.94 4.96l-1.48 1.462c-4.039 4.116-5.467 7.235-5.921 12.954.178 5.598 2.508 9.244 6.188 13.312 9.25 10.4 11.125 23.073 10.363 36.47-.636 6.082-2.973 11.654-5.238 17.28-5.53 14.1-9.798 28.186-13 43l-.548 2.438c-11.69 54.292 2.863 114.508 32.32 160.694 14.117 21.487 31.768 41.418 52.543 56.633a377 377 0 0 1 5.032 3.774c8.396 6.283 17.284 11.443 26.545 16.344 1.872.992 3.733 2.004 5.592 3.02C-47.34 467.91 13.672 470.201 67.625 454c8.67-2.69 17.136-5.822 25.543-9.242 10.695-4.202 24.158-3.884 34.836.277 5.745 2.868 10.649 6.695 15.621 10.715 3.437 2.708 6.56 2.783 10.832 2.953 5.808-.854 9.855-4.514 13.837-8.546l1.589-1.573c1.718-1.706 3.426-3.422 5.133-5.139l3.592-3.583q3.754-3.748 7.494-7.51c3.193-3.21 6.4-6.407 9.61-9.6q3.708-3.693 7.402-7.402 1.769-1.772 3.545-3.537a950 950 0 0 0 4.94-4.961l1.48-1.461c4.039-4.116 5.467-7.235 5.921-12.954-.178-5.598-2.508-9.244-6.187-13.312-9.25-10.4-11.126-23.073-10.364-36.47.636-6.082 2.973-11.654 5.239-17.28 5.529-14.1 9.797-28.186 13-43l.547-2.438c11.637-54.04-2.668-114.574-32.192-160.514-8.202-12.39-17.282-23.774-27.7-34.362a417 417 0 0 1-4.71-4.893C117.654 39.587 60.844 18.302 5.289 16.449c-33.668-.671-66.04 6.915-97.082 19.543" style="fill:currentColor;fill-opacity:1;fill-rule:nonzero;stroke:none" transform="translate(401.153 6.192)scale(1.64778)"/><path d="M0 0a330 330 0 0 1 7.66 7.081c2.507 2.396 2.507 2.396 5.188 4.473 3.606 2.903 6.374 6.382 9.363 9.902l2.473 2.777c7.773 8.807 14.292 18.28 20.527 28.223l1.242 1.963c11.363 18.207 18.918 39.195 23.758 60.037l.633 2.662c6.392 28.225 6.168 61.259-.633 89.338l-.715 2.968c-8.646 34.567-24.972 64.354-48.285 91.032l-2.191 2.566c-4.277 4.947-8.808 9.234-13.81 13.434l-2.76 2.457c-33.687 29.754-79.749 49.322-124.954 49.781l-2.439.03c-56.35.547-106.269-15.738-148.846-53.268l-2.555-2.184c-4.952-4.277-9.242-8.811-13.445-13.816l-2.457-2.762c-7.781-8.81-14.304-18.289-20.543-28.238l-1.242-1.963c-11.363-18.207-18.918-39.194-23.758-60.037l-.633-2.662c-11.6-51.22-1.194-109.023 26.633-153.338 6.898-10.65 14.618-20.491 23-30l2.184-2.555c4.277-4.952 8.811-9.242 13.816-13.445l2.762-2.457c8.81-7.781 18.289-14.304 28.238-20.543l1.963-1.242C-167.094-65.177-64.49-55.655 0 0m-268.79 24.456-2.362 2.203c-26.092 25.026-42.996 59.822-50.637 94.797l-.496 2.158c-5.584 25.267-4.53 54.82 1.496 79.842l.633 2.692c12.024 49.628 44.193 91.814 87.389 118.56 43.633 26.237 95.59 33.846 145.017 22.021 50.454-12.831 92.255-44.81 119.344-89.117 10.777-18.174 17.77-37.643 22.617-58.156l.586-2.442c5.665-24.962 4.47-54.857-1.586-79.558l-.732-3.003C39.957 64.725 8.062 21.983-35.789-4.544c-75.965-44.624-169.848-31.212-233 29" clip-path="url(#b)" style="fill:currentColor;fill-opacity:1;fill-rule:nonzero;stroke:none" transform="translate(622.741 137.881)scale(1.64778)"/><path d="M0 0c4.076 2.42 7.678 5.192 11.23 8.324l1.989 1.703c10.083 9.295 16.815 21.77 22.011 34.297 2.789-1.834 5.55-3.669 8.239-5.648C54.037 30.956 65.82 24.98 79.23 26.324c8.266 1.316 13.92 4.303 20 10l1.832 1.672c15.905 16.228 20.232 42.538 20.168 64.328-.61 17.918-6.41 33.47-19.578 46.051-13.704 11.03-29.51 15.19-46.922 13.324-15.556-2.4-28.372-10.415-38.5-22.375a109 109 0 0 1-6-10l-2.265.621-2.985.817-2.953.808c-.923.25-1.846.498-2.797.754l-1.878.532c-15.923 3.51-32.632-.042-46.266-8.489-8.227-5.885-14.333-13.025-18.856-22.043l-1.18-2.289c-7.836-17.104-4.955-36.61 1.37-53.68 8.012-20.062 20.499-39.118 40.81-48.03C-18.614-4.396-7.723-3.688 0 0m-39.77 30.324c-10.447 16.105-19.454 35.446-16 55 2.5 10.323 8.09 19.07 17 25 11.303 5.954 22.956 8.226 35.54 5.13 11.788-4.646 19.529-12.109 25.558-23.138 5.165-12.25 2.334-27.86-2.22-39.857C13.949 37.472 4.843 20.99-10.77 14.324c-12.844-2.343-21.81 6.372-29 16m90 25-2.949 2.18c-5.014 4.036-5.014 4.036-7.378 9.829-.155 4.75.483 9.327 1.327 13.991l2.485-1.277 3.265-1.66 3.235-1.653c7.372-3.447 15.978-3.552 23.875-1.761 8.174 2.97 14.085 7.793 18.078 15.539 4.023 8.66 4.45 17.67 1.312 26.75-1.575 3.905-3.408 6.917-6.25 10.062v2l-1.69.84a344 344 0 0 0-4.712 2.414l-2.535 1.309-2.527 1.316c-7.782 3.441-16.192 2.784-24.114.164-9.025-3.887-14.512-10.56-18.234-19.418q-1.112-2.804-2.188-5.625c-3.567 3.201-5.645 5.145-6 10 3.84 10.235 12.767 17.604 22.473 22.031 10.904 4.18 22.042 3.66 32.86-.68 11.095-5.62 18.04-14.618 21.914-26.288 4.846-19.689.33-42.567-9.844-59.86-3.466-5.445-6.98-9.856-13.403-11.812-11.35-2.027-20.649 4.752-29 11.61m.688 41.563c-2.865 4.138-3.174 7.487-2.688 12.437 1.866 4.672 4.423 8.052 8.813 10.563 4.262 1.806 7.798 1.864 12.187.437 5.079-2.778 8.164-5.49 10-11 .397-5.257-.105-8.56-3-13-3.757-3.717-6.904-6.14-12.25-6.312-5.961.076-9.122 2.508-13.062 6.875" clip-path="url(#c)" style="fill:currentColor;fill-opacity:1;fill-rule:nonzero;stroke:none" transform="translate(426.623 116.677)scale(1.64778)"/><path d="M0 0c7 6.018 11.328 15.316 15.783 23.254 1.739 3.099 3.495 6.188 5.248 9.278l1.072 1.894c3.342 5.898 6.752 11.756 10.178 17.606a6220 6220 0 0 1 14.069 24.16q1.447 2.495 2.896 4.99c7.235 12.514 12.488 22.59 9.394 37.514-2.874 8.23-8.949 15.743-16.734 19.774-8.74 3.407-19.193 4.125-28.125.875-10.714-5.19-15.47-13.705-21.065-23.765-2.223-3.967-4.508-7.898-6.787-11.833q-2.893-4.998-5.773-10.004-4.858-8.435-9.729-16.863a7616 7616 0 0 1-5.61-9.742 1329 1329 0 0 0-7.102-12.18l-1.664-2.844a592 592 0 0 0-3.066-5.185c-5.81-9.988-8.557-19.718-5.641-31.084C-49.873 7.456-43.74.173-35.957-4.093-23.877-9.543-10.654-7.786 0 0m-34.219 16.657c-2.573 5.353-3.154 9.196-1.5 14.938 2.725 4.658 5.698 7.566 10.938 9.312 5.294.441 8.954.267 13.457-2.68C-7.902 35.3-6.152 32.1-5.403 27.666c.283-5.408-.84-8.51-4.378-12.758l-1.375-1.75c-2.986-2.296-6.332-3.046-10-3.625-5.402.772-9.462 3.062-13.063 7.125m40.438 26.25c-.99 1.22-1.967 2.452-2.938 3.688-6.188 7.15-13.974 9.7-23.062 11.312 5.64 12.045 12.38 23.413 19.149 34.85a876 876 0 0 1 5.436 9.412l1.74 3.02a695 695 0 0 1 3.236 5.675c3.295 5.676 6.421 10.035 12.439 13.043 5.38.669 9.91.361 14.492-2.676 3.882-3.409 5.28-6.982 6.133-12.011-.509-9.539-8.307-19.416-13.063-27.438l-3.66-6.226-1.915-3.255c-3.483-5.948-6.922-11.921-10.362-17.894l-2.002-3.473q-2.313-4.012-4.623-8.027z" clip-path="url(#d)" style="fill:currentColor;fill-opacity:1;fill-rule:nonzero;stroke:none" transform="translate(205.84 326.633)scale(1.64778)"/><path d="M0 0c6.95 5.886 10.424 13.016 11.39 21.988.546 13.037-5.154 22.942-11.726 33.864q-1.875 3.163-3.746 6.328l-1.94 3.267c-3.169 5.36-6.271 10.758-9.376 16.155l-1.867 3.234a3440 3440 0 0 0-8.717 15.184q-1.51 2.648-3.026 5.293-1.89 3.303-3.767 6.612c-13.442 23.46-13.442 23.46-26.248 28.106-9.515 2.252-19.452 1.727-27.938-3.304-7.735-4.986-12.455-12.7-14.64-21.614-2.203-14.628 4.744-25.773 12.079-37.794 2.991-4.966 5.86-10.003 8.749-15.03q1.933-3.356 3.867-6.71l3.945-6.852a10418 10418 0 0 1 11.55-20.024q3.215-5.553 6.368-11.14c6.33-11.154 11.756-19.04 24.082-23.836C-19.753-8.993-9.353-6.71 0 0m-34.398 16.477c-2.574 5.352-3.155 9.195-1.5 14.937 2.527 4.322 5.397 7.043 9.937 9.313 5.381.668 9.91.36 14.492-2.676 3.26-2.864 5.122-6.058 5.852-10.344.217-4.735-.74-8.076-3.344-11.98-3.902-4.182-6.943-5.866-12.691-6.196-5.49.465-9.156 2.895-12.746 6.946m-15.563 27.25L-51.1 45.7l-7.452 12.92a5545 5545 0 0 1-9.545 16.508l-3.04 5.237a3396 3396 0 0 1-3.81 6.553c-8.013 12.037-8.013 12.037-9.795 25.698 1.647 4.448 4.675 7.835 8.71 10.278 4.912 1.973 9.723 1.28 14.634-.356 4.818-3.245 7.325-8.525 10.111-13.466a909 909 0 0 1 4.713-8.21q3.856-6.668 7.691-13.347c4.284-7.441 8.656-14.83 13.061-22.2l1.545-2.593 1.36-2.276c1.037-1.538 1.037-1.538.956-2.72l-2.273-.446c-9.629-2.11-17.874-5.263-23.727-13.554z" clip-path="url(#e)" style="fill:currentColor;fill-opacity:1;fill-rule:nonzero;stroke:none" transform="translate(667.514 392.842)scale(1.64778)"/><path d="M0 0c8.32 4.96 13.585 11.875 16.11 21.258.299 3.6.293 7.192.29 10.804l.02 3.264c.02 3.555.023 7.11.025 10.666l.02 7.436q.017 7.792.015 15.585c0 6.642.027 13.283.062 19.925.022 5.12.026 10.24.025 15.36q.002 3.672.026 7.344c.02 3.432.014 6.863.002 10.295l.034 3.036c-.08 9.075-2.534 17.027-8.816 23.754-8.224 7.393-16.938 9.113-27.715 8.843-8.386-.474-15.392-4.087-20.989-10.312-5.96-7.927-7.299-15.046-7.29-24.804l-.02-3.264c-.02-3.556-.023-7.111-.026-10.667l-.02-7.435a6152 6152 0 0 1-.014-15.585c0-6.642-.027-13.284-.062-19.926-.022-5.12-.026-10.24-.025-15.36q-.003-3.671-.027-7.343c-.02-3.432-.013-6.863-.001-10.295l-.035-3.036c.08-9.076 2.535-17.027 8.817-23.754C-28.997-3.739-12.954-6.216 0 0m-29.266 20.883c-2.204 4.578-2.422 8.38-1.625 13.375 2.33 4.838 5.162 7.67 10 10 4.995.797 8.798.579 13.375-1.625 3.584-3.243 6.22-5.84 7.008-10.774.256-5.683-.446-9.25-4.383-13.601-4.35-3.936-7.917-4.639-13.601-4.383-4.934.787-7.53 3.424-10.774 7.008m-2.625 37.375q-.106 12.87-.155 25.74-.022 5.978-.07 11.955-.05 5.778-.06 11.555a595 595 0 0 1-.032 4.39c-.53 12.805-.53 12.805 4.77 23.967 4.723 4.085 7.95 4.749 14.008 4.67 3.764-.411 5.757-1.76 8.54-4.277C-.3 130.425.236 125.803.222 118.54v-1.983c0-2.148-.008-4.296-.016-6.444l-.004-4.485Q.196 99.742.178 93.856.164 87.843.158 81.83.142 70.044.11 58.258l-3.75.983c-4.138 1.085-7.989 1.317-12.25 1.267l-2 .023c-4.95-.02-9.22-1.02-14-2.273" clip-path="url(#f)" style="fill:currentColor;fill-opacity:1;fill-rule:nonzero;stroke:none" transform="translate(428.47 419.979)scale(1.64778)"/><path d="M0 0c8.345 4.976 13.534 11.863 16.11 21.258.998 11.1.349 20.734-6.75 29.812-5.658 6.058-12.705 9.779-20.985 10.524-10.73.241-19.573-1.01-27.734-8.633-7.394-8.224-9.114-16.938-8.844-27.715.474-8.386 4.087-15.391 10.312-20.988C-27.152-3.818-12.324-5.914 0 0m-29.266 20.883c-2.204 4.578-2.422 8.38-1.625 13.375 2.33 4.838 5.162 7.67 10 10 4.995.797 8.798.579 13.375-1.625 3.584-3.243 6.22-5.84 7.008-10.774.256-5.683-.446-9.25-4.383-13.601-4.35-3.936-7.917-4.639-13.601-4.383-4.934.787-7.53 3.424-10.774 7.008" clip-path="url(#g)" style="fill:currentColor;fill-opacity:1;fill-rule:nonzero;stroke:none" transform="translate(428.47 195.88)scale(1.64778)"/><path d="M0 0c2.5 1.5 2.5 1.5 4 4 .783 4.27.98 6.49-1.398 10.156C.829 16.23-1.022 18.122-3 20l-2.437 2.5C-9.274 24.746-11.58 24.561-16 24c-2.5-1.5-2.5-1.5-4-4-.783-4.27-.98-6.49 1.398-10.156C-16.829 7.77-14.978 5.878-13 4l2.438-2.5C-6.726-.746-4.42-.561 0 0" clip-path="url(#h)" style="fill:currentColor;fill-opacity:1;fill-rule:nonzero;stroke:none" transform="translate(501.153 639.559)scale(1.64778)"/><path d="M0 0c2.5 1.5 2.5 1.5 4 4 .783 4.27.98 6.49-1.398 10.156C.829 16.23-1.022 18.122-3 20l-2.437 2.5C-9.274 24.746-11.58 24.561-16 24c-2.5-1.5-2.5-1.5-4-4-.783-4.27-.98-6.49 1.398-10.156C-16.829 7.77-14.978 5.878-13 4l2.438-2.5C-6.726-.746-4.42-.561 0 0" clip-path="url(#i)" style="fill:currentColor;fill-opacity:1;fill-rule:nonzero;stroke:none" transform="translate(303.419 613.194)scale(1.64778)"/><path d="M0 0c4.332 1.177 7.143 4.412 10.156 7.586l2.5 2.437c2.246 3.837 2.062 6.143 1.5 10.563-1.5 2.5-1.5 2.5-4 4-4.27.783-6.49.98-10.156-1.398-2.074-1.773-3.966-3.625-5.844-5.602l-2.5-2.438c-2.245-3.836-2.061-6.142-1.5-10.562C-7.457.609-4.616-.224 0 0" clip-path="url(#j)" style="fill:currentColor;fill-opacity:1;fill-rule:nonzero;stroke:none" transform="translate(141.679 493.588)scale(1.64778)"/><path d="M0 0c4.332 1.177 7.143 4.412 10.156 7.586l2.5 2.437c2.246 3.837 2.062 6.143 1.5 10.563-1.5 2.5-1.5 2.5-4 4-4.27.783-6.49.98-10.156-1.398-2.074-1.773-3.966-3.625-5.844-5.602l-2.5-2.438c-2.245-3.836-2.061-6.142-1.5-10.562C-7.457.609-4.616-.224 0 0" clip-path="url(#k)" style="fill:currentColor;fill-opacity:1;fill-rule:nonzero;stroke:none" transform="translate(286.684 309.037)scale(1.64778)"/><path d="M0 0c2.5 1.5 2.5 1.5 4 4 .783 4.27.98 6.49-1.398 10.156C.829 16.23-1.022 18.122-3 20l-2.437 2.5C-9.274 24.746-11.58 24.561-16 24c-2.5-1.5-2.5-1.5-4-4-.783-4.27-.98-6.49 1.398-10.156C-16.829 7.77-14.978 5.878-13 4l2.438-2.5C-6.726-.746-4.42-.561 0 0" clip-path="url(#l)" style="fill:currentColor;fill-opacity:1;fill-rule:nonzero;stroke:none" transform="translate(263.872 204.544)scale(1.64778)"/><path d="M0 0c2.5 1.5 2.5 1.5 4 4 .791 4.021.622 6.964-1.5 10.5C-1.036 16.622-3.979 16.791-8 16c-2.5-1.5-2.5-1.5-4-4-.791-4.021-.622-6.964 1.5-10.5C-6.964-.622-4.021-.791 0 0" clip-path="url(#m)" style="fill:currentColor;fill-opacity:1;fill-rule:nonzero;stroke:none" transform="translate(487.97 586.83)scale(1.64778)"/><path d="M0 0c2.5 1.5 2.5 1.5 4 4 .791 4.021.622 6.964-1.5 10.5C-1.036 16.622-3.979 16.791-8 16c-2.5-1.5-2.5-1.5-4-4-.791-4.021-.622-6.964 1.5-10.5C-6.964-.622-4.021-.791 0 0" clip-path="url(#n)" style="fill:currentColor;fill-opacity:1;fill-rule:nonzero;stroke:none" transform="translate(224.325 573.647)scale(1.64778)"/><path d="M0 0c2.5 1.5 2.5 1.5 4 4 .791 4.021.622 6.964-1.5 10.5C-1.036 16.622-3.979 16.791-8 16c-2.5-1.5-2.5-1.5-4-4-.791-4.021-.622-6.964 1.5-10.5C-6.964-.622-4.021-.791 0 0" clip-path="url(#o)" style="fill:currentColor;fill-opacity:1;fill-rule:nonzero;stroke:none" transform="translate(501.153 428.643)scale(1.64778)"/><path d="M0 0c2.5 1.5 2.5 1.5 4 4 .791 4.021.622 6.964-1.5 10.5C-1.036 16.622-3.979 16.791-8 16c-2.5-1.5-2.5-1.5-4-4-.791-4.021-.622-6.964 1.5-10.5C-6.964-.622-4.021-.791 0 0" clip-path="url(#p)" style="fill:currentColor;fill-opacity:1;fill-rule:nonzero;stroke:none" transform="translate(329.783 415.46)scale(1.64778)"/><path d="M0 0c2.5 1.5 2.5 1.5 4 4 .791 4.021.622 6.964-1.5 10.5C-1.036 16.622-3.979 16.791-8 16c-2.5-1.5-2.5-1.5-4-4-.791-4.021-.622-6.964 1.5-10.5C-6.964-.622-4.021-.791 0 0" clip-path="url(#q)" style="fill:currentColor;fill-opacity:1;fill-rule:nonzero;stroke:none" transform="translate(422.06 362.731)scale(1.64778)"/><path d="M0 0c2.5 1.5 2.5 1.5 4 4 .791 4.021.622 6.964-1.5 10.5C-1.036 16.622-3.979 16.791-8 16c-2.5-1.5-2.5-1.5-4-4-.791-4.021-.622-6.964 1.5-10.5C-6.964-.622-4.021-.791 0 0" clip-path="url(#r)" style="fill:currentColor;fill-opacity:1;fill-rule:nonzero;stroke:none" transform="translate(672.522 310.002)scale(1.64778)"/><path d="M0 0c2.5 1.5 2.5 1.5 4 4 .791 4.021.622 6.964-1.5 10.5C-1.036 16.622-3.979 16.791-8 16c-2.5-1.5-2.5-1.5-4-4-.791-4.021-.622-6.964 1.5-10.5C-6.964-.622-4.021-.791 0 0" clip-path="url(#s)" style="fill:currentColor;fill-opacity:1;fill-rule:nonzero;stroke:none" transform="translate(184.779 244.09)scale(1.64778)"/><path d="M0 0c2.5 1.5 2.5 1.5 4 4 .791 4.021.622 6.964-1.5 10.5C-1.036 16.622-3.979 16.791-8 16c-2.5-1.5-2.5-1.5-4-4-.791-4.021-.622-6.964 1.5-10.5C-6.964-.622-4.021-.791 0 0" clip-path="url(#t)" style="fill:currentColor;fill-opacity:1;fill-rule:nonzero;stroke:none" transform="translate(290.237 138.633)scale(1.64778)"/><path d="M0 0c2.5 1.5 2.5 1.5 4 4 .791 4.021.622 6.964-1.5 10.5C-1.036 16.622-3.979 16.791-8 16c-2.5-1.5-2.5-1.5-4-4-.791-4.021-.622-6.964 1.5-10.5C-6.964-.622-4.021-.791 0 0" clip-path="url(#u)" style="fill:currentColor;fill-opacity:1;fill-rule:nonzero;stroke:none" transform="translate(501.153 125.45)scale(1.64778)"/></svg>