<svg xmlns="http://www.w3.org/2000/svg" xml:space="preserve" id="_x32_" width="800" height="800" viewBox="0 0 512 512"><path d="M499.453 272.301 347.456 140.766 329.118 94.32a10.16 10.16 0 0 0-8.462-6.386 10.18 10.18 0 0 0-9.54 4.623L84.529 445.016h231.672l38.937-98.48 90.728 18.02a36.29 36.29 0 0 0 36.856-13.671l22.014-29.348c11.441-15.259 9.135-36.761-5.283-49.236M174.329 187.368c-14.886 19.696 7.964 37.759-6.916 57.468-14.886 19.696-37.734 1.638-52.62 21.334s7.963 37.766-6.911 57.462c-14.879 19.696-37.734 1.633-52.613 21.322-14.88 19.696 7.976 37.76-6.911 57.462C33.479 422.112 6.823 414.279 0 445.016h61.475l188.062-289.309c-34.289 14.089-60.322 11.952-75.208 31.661M469.414 74.949a5.83 5.83 0 0 0-2.262-7.054 5.82 5.82 0 0 0-7.346.898l-21.764 22.911 23.603 2.66zM440.689 146.754l-49.635-5.589-7.739 8.144 42.694 34.157zM455.394 109.979l-31.36-3.527-18.974 19.964 41.879 4.711z" style="fill:currentColor"/></svg>