<svg xmlns="http://www.w3.org/2000/svg" xml:space="preserve" id="Icons" viewBox="0 0 32 32"><style>.st0{fill:none;stroke:currentColor;stroke-width:2;stroke-linecap:round;stroke-linejoin:round;stroke-miterlimit:10}</style><path d="M13 19.9v2.8c-4.9.9-8.6 3.8-9 7.4h24c-.4-3.6-4.1-6.5-9-7.4V20" class="st0"/><path d="M21.7 23.4c-.8 1.3-3 2.2-5.7 2.2-2.6 0-4.9-.9-5.7-2.2M21.7 17H10.3C8.5 17 7 15.5 7 13.7V9.3C7 7.5 8.5 6 10.3 6h11.5C23.5 6 25 7.5 25 9.3v4.5c0 1.7-1.5 3.2-3.3 3.2M13 10h6M21.5 17c-1.5 2.5-3.7 4-5.5 4s-4-1.5-5.5-4" class="st0"/><path d="M9.4 6.1C10.6 3.5 12.7 2 16 2s5.4 1.5 6.6 4.1" class="st0"/></svg>