<svg xmlns="http://www.w3.org/2000/svg" xmlns:xlink="http://www.w3.org/1999/xlink" width="1280" height="1280" viewBox="0 0 1280 1280"><defs><linearGradient id="b"><stop offset="0" style="stop-color:#f0f;stop-opacity:1"/><stop offset="1" style="stop-color:#c7dc62;stop-opacity:1"/></linearGradient><linearGradient xlink:href="#b" id="c" x1="100.603" x2="1179.399" y1="302.946" y2="977.053" gradientUnits="userSpaceOnUse"/></defs><path d="m601.546 967.85-36.424-22.726c-6.805 15.6-21.32 26.915-37.261 32.146-5.65 1.76-11.635 2.986-17.564 2.479-21.018-5.766-40.231-16.391-59.213-26.835-7.875-4.36-15.727-8.768-23.714-12.924-9.357 2.397-19.157 2.186-28.71 1.939l-76.22-40.951 3.567 34.144-122.46-11.165c-32.454-11.786-64.38-24.95-96.5-37.597l60.884-19.64c9.38-1.921 17.266-8.097 23.192-15.395 5.577-6.827 10.225-14.338 15.297-21.535l67.637-98.47-32.01-23.633c-.536-2.702 3.64-.736 5.2-1.4 35.028-.977 69.723-6.58 104.708-8.218 9.411-.252 19.018-.641 28.232 1.64 3.514.647 5.983 3.37 8.856 5.26 16.774 12.237 33.634 24.354 50.451 36.531 4.43 6.974 6.943 15.227 6.463 23.527-.193 5.273-1.109 10.484-2.035 15.668 8.678-1.04 17.282-4.552 26.116-2.792 7.492 1.466 12.918 7.261 18.608 11.88 8.57-7.8 19.816-13.611 31.655-13.026l57.245.903-.612 3.45c6.154-3.817 13.4-5.05 20.31-6.806l-34.698.196c-13.421-7.101-27.697-13.25-38.914-23.765-1.37-.633-.535-2.056-.52-3.183l.744-5.551c4.02-7.409 8.1-14.891 13.69-21.259 3.705-2.415 8.237-2.832 12.547-2.742-3.494-4.059-3.027-9.983-1.148-14.652 2.933-7.288 7.924-13.662 13.807-18.812 1.103-1.095 2.437-1.813 4.006-1.681l51.788-3.625 7.515-7.11 37.883-3.362c1.656.459 3.387.763 4.996 1.317l25.32 19.857 54.95-4.124c3.73.002 7.265 1.595 10.026 4.049 1.262 1.238 3.066 1.504 3.98-.159l33.762-34.851 32.568-2.913 6.44 1.145 27.283 31.898c-.344 4.458-3.656 7.787-6.393 11.014l12.887 14.12c4.51 13.237 4.14 27.726 1.004 41.22-5.761 7.18-14.54 11.229-23.445 12.848-7.725 1.488-15.619 1.747-23.465 1.821l8.667 7.241 107.022-1.458 14.84-27.582 68.174-2.206L1038.317 770c9.125-.032 18.258.018 27.377-.066 4.72-.957 9.423-2.081 14.154-2.934h43.1l1.672 2.99c16.292-7.732 34.518-10.448 52.427-10.356 12.582-1.003 26.087-.179 37.095 6.615 9.168 5.564 14.963 15.309 17.796 25.442 4.424 15.748 4.116 32.294 3.845 48.502-.161 3.208.013 6.505-.372 9.659l-48.58 96.379L1276.048 1047c-224.83-26.412-449.66-52.826-674.5-79.15m564.07-39.219 59.615-116.901 3.066-15.035c-.823-3.515-1.516-7.084-2.418-10.567-1.903-2.92-3.682-5.966-5.663-8.81-3.276-2.054-6.51-4.2-9.813-6.197-10.407-4.342-21.441-5.275-32.535-6.478-16.276.429-31.804 4.09-47.458 8.164l-19.793 9.257-2.76-.564 6.377-8c-7.996-.5-15.993-1.118-23.989-1.545-4.816.412-9.656.712-14.457 1.192-1.573.492-3.073 1.366-4.694 1.61l-70.178 1.47c3.863-7.65 7.622-15.363 11.55-22.974l3.95-5.581c-9.976.425-19.949.976-29.927 1.321l-28.406.008-13.746 27.5c-23.49.564-46.982 1.03-70.47 1.657l-43.078 1.343c-3.148 5.515-6.21 11.095-9.412 16.57l-2.22 2.22c-.55-2.147-.73-4.415-1.535-6.478-1.236-2.6-2.312-5.333-3.648-7.852-2.713-1.916-5.358-3.977-8.111-5.805-3.402-.781-6.794-1.698-10.2-2.395l-10.617 1.095c-.032-1.343 1.014-2.436 1.457-3.669l13.393-27.449-46.01 1.447c-9.536 16.759-19.072 33.516-28.535 50.315h-2.77c-1.156-11.21-4.79-14.902-19.185-19.65-27.136-3.903-45.639 7.227-66.187 22.15-.694-.228-2.402.558-2.163-.604-.039-2.196.078-4.423-.058-6.6l-2.784-6.663c-2.608-1.679-5.162-3.48-7.804-5.083-3.976-1.004-7.94-2.109-11.925-3.05-4.26.026-8.534-.05-12.786.038-4.095 1.097-8.236 2.063-12.302 3.241-4.328 2.004-8.727 3.875-13.011 5.962l-9.36 5.76c-1.37.441-.907-.948-.97-1.813-.193-1.234 1.084-1.986 1.611-2.984l4.195-5.704c-13.534-.094-27.075-.095-40.605-.249-4.023-.456-8.06-1.074-12.074-1.43-3.938 1.185-7.932 2.228-11.835 3.5-2.413 1.303-4.962 2.387-7.288 3.83l-17.504 12.92c.004-6.708-3.106-13.214-8.138-17.61-2.07-1.175-4.867-.63-7.24-.79-6.065.109-11.988 1.644-17.773 3.308L418.29 786l-10.987 17c.114-5.57-1.651-11.63-6.41-14.967-5.605-4.176-13.077-5.11-19.763-3.448-4.555 1.016-8.886 2.81-13.142 4.688-1.163-.601.06-1.517.368-2.313l17.557-30.46c4.697-10.335 7.566-21.8 6.64-33.204-.567-6.998-3.657-14.468-10.22-17.796-5.206-2.82-11.248-2.612-16.96-2.134L252.546 710.5l25.423 20.425-81.423 120.453c-6.136 7.987-14.415 14.188-23.43 18.561l-48.57 15.794 121.858 8.502c-1.44-5.945-2.477-12.079-2.281-18.203 2.585-12.264 10.415-22.496 18.458-31.761 1.499-1.438 2.708-3.688 4.418-4.587 18.14 2.368 36.689-1.372 53.368-8.562 1.168-.273 4.954-2.944 2.757-.468-7.203 10.48-13.708 21.87-16.2 34.48-1.572 7.906-.638 16.868 4.858 23.13 1.987 2.339 4.429 4.261 7.071 5.808 12.12 1.72 24.148-2.75 34.457-8.793 1.531-.594 4.608-3.844 3.767-.382.233 2.453-1.774 5.617-1.877 7.313l60.147 4.692c.756.397 2.026.562 2.46 1.105-8.377 23.374-2.383 29.541 11.216 37.11 33.246 5.916 52.339-6.781 78.41-45.155.863.285 1.828.443 2.109 1.446 5.365 11.013 8.88 11.531 19.32 16.846 9.496 1.615 18.492.304 27.824-1.452 9.047-2.88 16.676-7.842 24.4-13.162 5.243 6.008.106 7.644 12.114 17.35 3.788 1.06 7.562 2.277 11.358 3.242 6.78-.006 12.508-1.621 18.501-4.466.922.68 1.745 1.61 2.724 2.145 26.92 1.632 53.849 3.144 80.763 4.869 3.87 1.389 7.716 2.918 11.601 4.22 14.094 1.576 26.427-4.325 38.507-10.586l9.524-9.45c.555.574 1.93.69 1.868 1.607.04 1.874-.079 3.779.059 5.633 1.671 5.57 5.253 9.63 9.204 13.75 8.578 4.468 17.335 4.178 26.748 3.993 1.695-.6 3.365-1.368 5.076-1.863l51.321 3.192c.933-2.857 2.737-5.317 4.087-7.984l8.133-14.668c.672.014 2.108-1.22 2.2-.262.492 3.07.862 6.18 1.431 9.226 1.261 2.389 2.402 4.87 3.737 7.201 2.337 2.004 4.599 4.133 6.982 6.06 3.76 1.375 7.494 2.865 11.27 4.17l93.954 6.113c1.713-2.73 3.032-5.7 4.589-8.525 11.444-21.807 22.81-43.655 34.303-65.436 2.244-4.086 4.313-8.277 6.668-12.296 1.85-2.66 3.587-5.432 5.505-8.023 2.542-1.631 5.022-3.423 7.602-4.956l6.957-1.13c2.334 1.156 4.59 2.537 6.972 3.55l6.702 1.218v3.854c-6 4.585-12.063 9.099-18.026 13.729-2.31 2.308-4.807 4.452-6.999 6.865-3.549 4.757-7.216 9.44-10.69 14.243-5.169 8.318-8.236 16.851-10.009 26.372.344 4.676.553 9.385.98 14.042 1.545 3.46 2.953 7.018 4.582 10.418 4.828 5.211 10.217 9.008 16.656 11.891 3.888 1.15 7.759 2.419 11.657 3.495l24.85-.091 8.858-3.39c.533.7.87 1.727 1.522 2.229l88.357 5.81zM1109.292 935l-2.656-3.201 3.317-9.226c-.544-1.092-1.34-.192-2.072.203-7.86 5.368-16.65 8.73-25.483 12.11-3.38.419-6.76.953-10.14 1.3-12.675-.966-22.664-4.332-31.118-14.19-6.93-18.908 4.982-36.391 15.993-50.782 7.413-8.252 16.335-14.277 25.684-20.071 4.821-2.023 9.578-4.22 14.44-6.134 16.738-6.176 34.393-8.764 51.85-11.945l8.879-3.928c3.965-4.814 4.046-8.849 4.046-14.826-1.302-1.117-2.513-2.395-3.87-3.413-9.474-3.945-18.224.73-25.895 5.986l-5.735 9.044-39.717.073c.564-1.949.818-4.024 1.583-5.89 1.645-2.675 3.086-5.493 4.863-8.075 3.643-4.354 7.22-8.777 10.904-13.087 7.783-6.365 15.897-11.873 25.077-15.955 9.226-3.867 18.805-6.251 28.591-8.154 12.608-1.455 24.637-1.036 36.98 1.541 5.616 1.593 10.324 4.688 15.145 7.837 1.336 2.86 2.848 5.68 4.073 8.565-.062 2.666.095 5.362-.1 8.009-.811 2.688-1.39 5.467-2.346 8.098l-57.475 110.757-2.426 9.07 4.339 8.284zm3.913-38.163c1.642-.753 3.384-1.364 4.966-2.203 3.473-3.798 7.025-7.538 10.45-11.371l10.681-19.342c-.557-1.044-1.496-.707-2.425-.407-7.485 1.907-14.998 3.736-22.465 5.693-4.053 2.015-8.156 3.95-12.177 6.014-2.478 2.104-5.113 4.092-7.494 6.269-.878 2.203-1.913 4.374-2.694 6.597v6.603c2.403 2.656 5.303 4.13 8.65 5.254 2.633-.406 5.325-.595 7.921-1.134zm-677.062 32.06c-27.88-5.374-9.92-33.883-6.596-37.534l20.115.812-.115 9.21c7.432 4.225 15.524 5.355 30.35-21.377-2.996 2.029-5.944 4.153-8.97 6.123-5.402 2.715-10.549 2.869-16.435 2.869-12.98-8.056-6.176-24.391-2.182-35.683 8.366-19.606 32.219-57.093 62.14-66.317h8.751c4.042 3.39 5.837 5.396 5.946 10.5l4.048-8.343 22.852.03-56.33 98.438c-14.356 23.744-34.127 41.99-63.574 41.273m57.814-75.266c6.77-8.466 11.738-17.874 16.336-27.628l.98-8.702c-1.128-.358-2.255-1.013-3.384-1.192-10.815 2.914-16.58 12.163-22.797 20.657-4.467 7.498-9.61 15.728-6.835 24.47 5.781-.172 12.223-2.757 15.7-7.605m452.59 69.634c-.914-.325-.408-1.672-.429-2.433 24.128-45.508 48.216-91.039 72.37-136.532.68-.466 1.83-.096 2.692-.237l32.787-.477c.454.685 1.873 1.186 1.11 2.103l-4.88 11.311c1.234.25 1.843-1.124 2.751-1.72 1.968-1.713 3.828-3.578 5.864-5.196 4.304-2.331 8.568-4.767 12.896-7.034l13.451-3.12 6.888 1.293c.097 1.076-.079 2.086-.7 2.987l-21.8 43.29c-5.343-.469-10.668-1.116-16-1.698-3.86 1.492-7.784 2.87-11.604 4.432-3.609 2.98-7.309 5.876-10.86 8.906-3.647 5.595-7.397 11.129-10.979 16.761l-36.296 69.13c-.943.608-2 .551-3.069.419zm-28.589-1.297c-3.955-.293-7.942-.414-11.878-.817-3.603-1.087-7.277-2.037-10.836-3.209-1.64-1.354-3.446-2.582-4.984-4.014-.796-2.054-1.795-4.078-2.469-6.15.402-3.467.678-6.97 1.159-10.415 2.499-5.23 4.662-10.63 7.558-15.661l33.506-61.5c-1.528-.502-2.971-1.462-4.64-1.202h-7.56l16.615-33 15.251-1.202 14.208-28.496 32.464-1.426 2.606 2.624L984.97 785h19.292l-16.707 32.898c-.705.6-1.202 1.691-2.283 1.407l-19.35.195-29.835 56-1.33 6.848c1.452 1.108 2.817 2.417 4.323 3.399l10.103 1.34c-1.737 4.019-3.937 7.822-5.867 11.75L930.949 923c-2.88-.616-5.863-.48-8.788-.766zm-127.997-6.924c-1.508-.41-3.006-.84-4.229-1.86-1.315-.93-2.815-1.706-4.016-2.732-.869-2.184-1.896-4.336-2.669-6.539.033-2.732-.064-5.485.049-8.204 1.706-4.977 3.288-10.008 5.072-14.952 4.205-7.866 8.397-15.738 12.857-23.463L837.29 786h28.755l-44.19 83-1.07 7.98c.903.97 1.662 2.245 2.656 3.02h6.378c3.226-2.222 6.563-4.335 9.72-6.626 3.275-4.967 6.678-9.857 9.873-14.873L889.197 785h32.85c-.018 1.28.23 2.627-.741 3.666-22.916 42.5-45.84 84.996-68.76 127.493l-27-1.368c-.691-.5-1.892-.82-2.268-1.43l4.687-11.5c-2.563 1.099-4.712 2.949-7.087 4.39-3.11 2.023-6.171 4.149-9.312 6.108-3.952 1.196-7.885 2.522-11.849 3.637-2.482-.113-4.999-.009-7.46-.256zm-72.914-4.765c-2.21-.66-3.864-2.373-5.791-3.568-2.896-2.718-4.174-7.273-5.882-10.866L699.547 907l-27.5-2.17 85.886-150.541 28.763-1.073c-7.447 13.724-14.766 27.517-22.13 41.285 2.57-1.629 5.006-3.494 7.664-4.967 3.827-1.781 7.618-3.689 11.468-5.39 3.328-.332 6.676-.845 9.992-1.067l9.811 3.424 4.546 6.796c-.032 4.662.064 9.345-.047 13.995-1.777 5.2-3.42 10.452-5.279 15.619-2.952 6.158-5.766 12.388-8.806 18.501-5.425 9.44-10.784 18.922-16.251 28.335-3.788 5.267-7.479 10.617-11.328 15.833-5.312 5.37-10.569 10.807-15.915 16.134-3.316 2.111-6.583 4.328-9.928 6.374-3.322.955-6.627 2.031-9.96 2.911-4.039-.087-8.104-.037-12.127-.209zm25.767-39.36c10.498-12.51 17.221-27.233 24.55-41.685l.929-11.203c-1.19-.345-2.342-1.12-3.557-1.195-2.168.447-4.397.744-6.527 1.284-3.078 2.08-6.25 4.058-9.268 6.2-12.721 15.102-20.974 29.266-24.263 48.467l3.555 5.426c2.137-.465 4.342-.77 6.438-1.332 2.642-2.072 5.67-3.687 8.143-5.962m-70.543-43.307c4.376-2.595 6.098-6.075 7.776-10.699-.076-.942.15-2.01-.106-2.877-1.078-.974-2.036-2.24-3.188-3.035-2.11.058-4.256-.054-6.343.105-6.908 1.99-10.393 6.537-14.697 11.894-8.244-1.146-17.89 2.672-25.161-1.924 1.422-2.55 2.674-5.221 4.2-7.697 10.966-14.632 37.75-37.231 72.175-26.114 11.493 9.745 4.62 21.845-.15 29.551-14.59 25.33-29.27 50.608-43.8 75.972-1.452 2.472-1.765 5.564-2.118 8.382l1.075 4.114-26.387-1.315-2.88-1.822 2.076-6.647-17.374 8.545c-34.527 6.058-48.469-55.668 54.902-76.433m-29.944 46.662c1.317-1.018 2.907-1.753 4.048-2.953 4.863-6.015 8.715-12.674 12.62-19.321-12.515.878-25.03 5.795-31.935 16.65l-.013 6.236s9.298 2.447 11.624 1.89zM534.95 899.966c-11.145-1.065-15.868-8.85-18.08-18.565.191-3.552 1.358-16.523 8.299-24.192l21.675.561 3.513 15.23c7.673 1.082 14.39-1.002 17.793-9.278l-.603-6.222c-6.663-3.525-13.463-6.794-19.318-11.597-3.784-5.756-3.234-11.079-2.483-17.644 14.122-31.999 35.234-43.2 67.801-43.215 14.048 4.988 12.807 11.249 11.693 23.594l-5.274 11.794-25.419.068c.532-3.504.188-6.83-.478-10.261-6.982-2.55-12.63.714-17.165 5.542q.323 3.285.643 6.571c8.092 4.46 15.845 8.51 21.487 15.885.637 2.537 1.456 5.068 1.982 7.61-.594 3.01-1.07 6.062-1.737 9.046-14.95 35.367-40.177 44.634-59.88 45.804zM319.885 887.22c-4.71-4.325-8.268-10.434-7.876-17.005.462-8.491 4.764-16.124 8.708-23.444 4.186-7.47 8.538-14.882 13.915-21.574 11.137-14.322 25.343-26.526 41.93-34.055 4.824-1.74 10.023-1.112 15.04-1.142 5.181 3.75 8.296 10.093 7.931 16.495-.475 9.904-5.52 18.826-10.576 27.09-5.392 8.334-10.92 16.598-17.153 24.333-8.609 10.922-18.882 21.372-32.233 26.202-6.279 2.314-13.008 3.283-19.686 3.1m41.044-43.856c5.482-7.98 9.74-16.757 12.994-25.864l-2.837-2.89c-9.93 3.631-16.827 12.223-22.481 20.76-5.565 7.313-10.293 15.908-10.558 25.297.932 1.559 2.49 1.456 4.05.787 7.387-2.26 11.957-8.99 16.369-14.862.808-1.085 1.62-2.168 2.463-3.228m39.117 44.51c12.266-20.786 24.59-41.539 36.817-62.345 1.41-2.609 2.222-5.555 2.183-8.529h-5.844c-7.849 4.4-12.691 12.274-17.585 19.523L384.26 886.5l-17.251.578-2.882-1.613 58.42-93.965h17l-1.697 7.454c7.11-5.54 15.575-10.313 24.865-10.06 3.148-.46 5.915.927 7.234 3.882 3.12 5.265 1.077 11.69-1.517 16.715-3.297 6.17-7.263 11.95-10.82 17.97L420.35 888.5zm-247.442-6.765c2.868-2.362 6.833-2.454 10.24-3.583 12.43-3.219 23.564-10.243 33.102-18.682l87.285-128.049-18.398-16.684c30.546-2.064 61.088-4.185 91.636-6.214 7.476-.26 15.748.23 21.844 5.082 5.007 3.99 6.467 10.823 5.96 16.925-.94 11.248-5.651 21.749-10.639 31.726a246 246 0 0 1-17.53 28.768c-14.073 18.522-33.678 32.607-55.363 40.87-12.386 4.196-25.626 2.63-38.452 2.96-2.065 1.899-3.616 4.835-5.532 7.096-7.274 9.673-15.163 19.681-17.43 31.89-.927 4.87-.905 9.898-.122 14.787zm179.777-129.391c-2.202-1.842-4.9-3.101-7.823-3.102-3.683-.21-7.335.482-11.012.54-10.027 13.252-17.58 28.226-28.157 41.08l19.157-1.422c8.264-3.16 15.123-9.324 20.301-16.392 4.327-6.038 7.27-13.222 7.534-20.704M726.13 786.25c5.298-8.81 9.953-17.98 14.86-27.01L724.627 748l-49.082 1.738c-3.96-1.463-6.98-4.558-9.745-7.628-13.137 13.392-30.328 22.239-48.17 27.562-3.963 1.106-7.971 2.2-12.085 2.557 5.434.878 10.897 1.654 16.312 2.594 2.92 1.339 5.928 2.551 8.793 3.969l11.491 11.908c37.75-28.432 73.21-17.256 83.987-4.449m-80.583-83.116 5.5-.135-10.155 15.473c.127 3.13 1.307 6.184 3.4 8.527l91.633-3.5c-4.648 5.364-10.247 10.47-12.115 17.58l3.547 3.92h21.596c1.64-.607 3.22-1.487 4.896-1.92l50.698-1.8 3.623 1.856c11.313-.465 22.602-2.663 33.228-6.506l8.472-8.13c.436-2.606 1.072-5.2 1.383-7.813l-1.938-30.052-4.684-3.793-25.584 1.415 19-23.261v-4.087L833.137 656c-4.04-.027-8.04.687-12.062 1.001l-24.056 2.435c-12.114 13.078-24.461 25.94-36.703 38.9-.875-4.35-4.9-7.093-8.747-8.592l-87.843 5.581c3.875-4.771 6.6-10.386 8.443-16.227-1.169-3.644-4.984-5.336-8.335-6.354l-36.25 3.026-6.038 6.978-54.114 4.155-5.228 1.988-11.158 18.696c-.74 3.312 1.411 6.167 3.284 8.656l36.716-2.282c.42 1.649-.544 2.46-2.125 2.837-12.828 5.766-27.186 5.784-40.981 5.848-2.01.198-4.181-.358-6.086.344-.983.545-2.272.743-3.051 1.518l-11.757 19.885c-.747 3.292.943 6.76 3.914 8.31 2.675 2.087 6.165 1.216 9.303 1.44 21.59.11 43.632-3.558 62.856-13.776 16.866-8.81 30.958-22.184 42.427-37.232m-101.36 27.072c21.082 1.519 42.895-3.294 60.513-15.222a87.5 87.5 0 0 0 11.333-9.067c-18.746.81-37.458 2.272-56.209 2.991 2.52-4.288 4.924-8.676 7.516-12.902 1.064-.661 1.872-1.993 3.262-1.802l53.68-3.52-1.42 4.815c1.65-2.26 3.301-4.52 4.537-7.04l3.017-5.46c2.32-.075 4.672.153 6.974-.118l5.825-1.166-7.12 14.139-4.548.873 7.5.272c.327 1.7-.733 3.05-1.558 4.44-8.403 14.452-21.68 25.745-36.849 32.611-20.21 9.237-42.738 11.897-64.76 11.949zm190.86 7.193 66.01-71.208 25.99-2.23-49.399 55.342 40.243-2.547-1.929-19.519 24.753-2.472 2.37 28.294c-1.442 3.161-3.91 5.893-7.256 7.055-3.069 1.112-6.187 2.466-9.5 2.452zm-73.2-33.9 88.408-4.626-10.81 15.434-88.76 4.994zm144.507-3.5 1.92 10h-10.227zm-157.897-17.784L663.213 681l-8.667 13.983-14.768 1.322zM3.954 428.868l40.764-75.592c5.567 6.468 11.21 12.875 16.73 19.381 8.436 10.627 17.955 20.333 27.257 30.19 17.274 17.997 34.872 35.68 52.604 53.224-5.56-34.07-21.478-65.759-42.342-92.994-6.577-8.633-13.805-16.756-21.382-24.511-12-14.782-27.883-25.687-43.983-35.536-8.946-5.514-18.01-10.85-26.714-16.746L32.33 233h29.715c31.855 8.155 64.493 12.714 97.075 16.827 57.753 6.949 115.787 11.373 173.868 14.428 1.948.339 6.053-.753 3.96 2.231-7.714 20.224-13.825 41.241-15.695 62.882.062 2.065-.856 5.027-.21 6.654l99.503 7.23c12.123-11.25 21.685-25.035 34.553-35.505 6.672-5.344 14.306-9.67 22.542-12.02 8.426-.663 16.572 2.495 24.138 5.849a133.4 133.4 0 0 1 17.942 10.078l-8.675-44.926c1.914-.106 4.672.305 6.91.463 32.9 3.246 65.738 7.106 98.59 10.8.86 1.047 1.558 2.345 2.515 3.24l68.985 14.514V289l83.857 10 3.577 73.767L830.858 377c2.117-4.44 4.117-8.964 6.307-13.353 4.26-4.132 8.445-8.37 12.752-12.437l11.63-5.71h16.103l15.543 7.682 2.353-3.128 121.5 12.069c.098.992.102 1.933-1.018 2.258l-19.482 12.447c.623.832 1.5 1.083 2.505 1.039l71.995 6.133c.012.922.276 2.015-.984 2.07-4.297 1.725-8.659 3.32-12.916 5.126-5.23 3.252-10.512 6.437-15.708 9.733-3.168 3.08-6.408 6.102-9.53 9.22-2.525 3.952-5.142 7.86-7.608 11.84-1.568 4.89-3.265 9.76-4.752 14.662l.192 21.442 1.964 1.964c1.793-1.462 3.712-2.817 5.428-4.345.944-1.975 2.414-3.751 2.688-5.979l2.792-12.233 34.643-23.625c.77.597 1.258 1.353 1.331 2.34l28.714 120.797c-9.637 4-19.249 8.089-28.902 12.033l-126.013 21.137-2.838-16.013-33.654 20.03L788.046 592l-.004 14.5-86.496 70.499c-4.051.22-8.122.435-12.118 1.174-23.86-19.423-47.746-38.816-71.591-58.258-6.22-5.42-13.605-9.61-18.726-16.21l-24.194 23.523L97.278 691Zm780.092 174.96V550.38l-27.818-20-29.694-2.573-20.665 12.2c-3.601-2.018-6.715-4.768-10.076-7.146q-6.123-4.56-12.247-9.117l-35-2.991-33 18.061-1.428 59.567 86.083 73.465zm-158.213-8.46.804-46.665 25.725-18.026 28.05 2.283q12.374 9.636 24.747 19.274L728.33 536.8l26.017 2.3 20.974 16.234-1.352 44.165-73.046 57.434zM282.12 583.325c-16.754-44.682-37.665-87.927-50.026-134.165-5.84-21.967-9.748-44.665-9.008-67.464 34.019 65.954 63.718 133.997 94.46 201.507l36.407-4.777c-2.469-40.647-14.087-79.93-25.672-118.732-10.792-36.395-21.552-73.418-22.444-111.645-.625-23.626 2.815-47.37 10.37-69.773l-68.824-6.947c22.263 41.175 35.448 86.484 45.722 131.937 5.043 22.252 9.444 44.643 14.011 66.996L215.32 267.5l-106.793-12c34.841 33.58 65.757 72.032 86.59 115.931 10.584 22.77 18.832 47.205 19.77 72.49.312 13.289-1.402 27.515-9.414 38.558-5.5 7.74-14.91 12.256-24.364 12.057-13.854-.152-26.663-6.788-37.921-14.323-9.711-6.616-18.563-14.417-26.864-22.713l63.222 134.495zm158.826-31.256c5.527 7.058 11.65 14.27 19.989 18.048 4.965 2.335 11.178 1.962 15.516-1.535 6.085-4.793 9.436-12.181 11.595-19.441l-8.15-35.593c-1.736 2.648-3.515 6.136-6.99 6.617-4.092.238-6.961-3.42-8.253-6.898-1.003-2.705-2.157-5.385-2.941-8.154L446.914 435.5c-3.15-22.063-11.969-43.21-24.903-61.308-10.17-10.592-24.063-17.379-38.613-19.181-11.764-1.834-24.578 3.046-31.477 12.907-6.862 9.626-8.302 21.948-7.72 33.463.314 6.021 1.196 12.003 2.421 17.903l34.72 9.026c-1.844-7.854-3.624-16.268-1.053-24.17 1.52-4.677 5.437-8.301 10.037-9.887 6.764.89 12.086 6.074 15.466 11.701 3.592 6.026 5.064 13.847 1.954 20.382-3.816 5.466-10.076 8.333-15.58 11.762-8.818 5.138-17.27 10.96-24.835 17.831-4.826 9.004-9.016 18.65-9.628 28.982-1.045 15.063 3.158 29.902 8.152 43.954 3.324 8.965 6.745 17.998 12.04 26.021 5.559 8.55 12.565 16.802 22.085 21.009 6.741 3.08 14.865 2.609 21.224-1.175 8.846-5.132 14.85-13.91 19.742-22.65m-46.618-52.188c-1.31-6.797 1.356-13.731 5.67-18.937 5.618-7.03 13.111-12.174 19.49-18.445 2.666 13.832 6.434 27.6 6.509 41.782.836 5.69-.526 11.819-3.947 16.472-2.592 3.63-7.45 5.043-11.675 3.85-6.876-1.473-11.913-7.402-13.982-13.895-1.196-3.488-1.798-7.157-2.065-10.827m161.3 63.732c6.888-2.505 10.885-9.094 14.604-14.982 1.183-1.03.884-2.277.397-3.554q-5.354-18.99-10.707-37.984c-3.307 3.945-7.232 8.26-12.64 8.91-5.19.379-9.081-3.852-11.818-7.746-3.2-4.653-5.87-9.72-7.25-15.226-5.116-18.309-8.72-36.996-12.486-55.617A2793 2793 0 0 1 509.38 404l21.828-1.275-8.2-37.725h-24.844l-12.156-49-15.461-.002c.592 10.534 1.383 21.496-2.228 31.615-2.138 6.147-7.064 11.368-13.393 13.199-1.65 1.084-5.478.3-5.986 1.78l8.405 39.281 18.085 1.627c11.802 44.81 22.057 90.012 31.749 135.32 4.158 7.058 9.225 13.81 15.695 18.946 6.94 5.621 16.114 8.21 24.975 7.225 2.625-.244 5.225-.725 7.779-1.376zm55.691-28.17 23.571-12.766c-1.262-3.305-2.673-6.581-3.844-9.903.31-1.69-.645-.324-1.281.271L622.811 520c-1.161-.101-2.434.192-3.523-.166-6.318-2.775-9.596-7.432-13.148-13.093-1.746-7.518-3.367-15.074-5.19-22.57-3.967-11.38-6.22-23.264-8.648-35.043a701 701 0 0 1-2.802-15.092l19.172-.036c-2.193-10.24-4.46-20.468-6.607-30.715-.466-.514-1.79-.121-2.585-.287l-17.826-.498-7.844-31.5h-12.513l-.867 16.52c-2.018 3.623-3.904 7.362-6.005 10.913l-5.321 3.915-7.027.152 6.934 31.207 14.805 1.206c3.824 17.875 7.515 35.784 11.568 53.607 2.753 9.61 3.82 17.828 5.926 26.703 2.406 10.58 6.726 20.153 11.951 29.582l6.285 7.641 1.051-10.397c3.24-2.733 7.06-4.534 10.722-6.604m209.321 8.317c-2.844-7.188-5.786-14.345-8.57-21.553-1.747-6.98-3.698-13.91-5.304-20.922-3.511-16.327-7.11-32.636-10.566-48.974-.716-3.987-1.555-7.972-2.194-11.962l1.278-10.407 4.327-6.443 5.455-.635c1.92 1.989 4.009 3.876 5.828 5.927 1.744 5.632 3.617 11.232 5.282 16.885 3.59 18.092 7.252 36.172 10.797 54.272.983 7.386 2.087 14.76 2.995 22.154L831.239 543l35.519-2.3c-4.555-9.534-9.173-19.042-13.688-28.59-1.693-6.033-3.58-12.015-5.144-18.081-5.273-22.615-10.417-45.264-15.827-67.845-1.72-4.443-3.278-8.958-5.1-13.356-2.625-6.713-7.301-11.712-12.251-16.794-5.198-3.257-9.93-4.295-15.935-3.964-4.511 1.8-7.648 4.999-10.674 8.7-1.008 2.1-2.198 4.155-3.093 6.282V410c-3.153-.039-4.21-5.198-5.713-7.6-3.266-3.217-6.444-6.565-9.765-9.702-2.207-.88-4.382-1.916-6.608-2.698h-8.958l-8.846 8.154-3.313 9.976c-.661-.69-1.528-1.26-1.564-2.31l-3.854-14.32-28.379-.555c-.21 1.38 1.012 2.37 1.528 3.554 1.905 3.35 3.99 6.608 5.78 10.015 2.067 4.955 4.298 9.848 6.26 14.844 1.516 4.583 3.211 9.117 4.613 13.733 4.277 20.053 8.63 40.09 12.86 60.153 1.291 7.571 2.715 15.127 3.923 22.708l.536 8.548 14.565 1.3c4.91 3.437 9.817 6.88 14.734 10.31-2.528-7.972-5.143-15.92-7.617-23.906-2.526-13.001-5.552-25.897-8.385-38.833-2.255-10.267-4.596-20.524-6.797-30.797v-10.15l4.5-8.924 7.58-.626c1.845 2.04 3.846 3.987 5.592 6.083 1.801 6.05 3.755 12.061 5.462 18.135 3.591 17.954 7.255 35.895 10.8 53.857.987 7.386 2.098 14.76 3.007 22.154l1.369 23.16zm97.348-6.551c1.327-1.003 2.801-1.856 3.662-3.333 1.779-2.377 3.687-4.688 5.387-7.105 1.288-4.28 2.702-8.53 3.91-12.827.68-5.183 1.525-10.353 2.1-15.543-.044-5.36.086-10.728-.066-16.081-.735-6.469-1.33-12.959-2.154-19.413-2.284-11.322-4.469-22.67-6.813-33.976-2.364-6.96-4.605-13.97-7.044-20.9-2.75-5.904-5.39-11.87-8.207-17.735-3.549-5.293-7.03-10.644-10.62-15.901-3.949-3.726-7.83-7.548-11.82-11.214-2.732-1.33-5.389-2.877-8.166-4.07-2.445-.413-4.897-1.011-7.336-1.309l-8.777 2.458c-2.315 2.602-4.719 5.144-6.98 7.783-1.294 2.67-2.815 5.253-3.967 7.98-1.034 3.929-2.243 7.83-3.167 11.778-.36 8.39-.842 16.785-1.126 25.173.832 7.654 1.54 15.327 2.45 22.968 1.688 7.806 3.239 15.646 5.014 23.43 2.35 8.465 4.6 16.963 7.013 25.405 2.977 6.99 5.86 14.028 8.897 20.988 2.983 5.053 5.896 10.158 8.922 15.178 3.75 4.011 7.432 8.107 11.225 12.065 2.483 1.467 4.863 3.142 7.41 4.476 2.324.822 4.623 1.821 6.962 2.534l10.732-.914zm-21.592-41.138c-1.291-.958-3.063-1.409-3.833-2.917-1.836-2.792-3.895-5.453-5.587-8.33-1.587-3.261-3.352-6.45-4.83-9.757-2-6.372-4.132-12.71-6.05-19.104-1.479-7.539-3.038-15.07-4.467-22.615l.076-24.849 3.012-7.912 5.155-3.848c1.695.48 3.498.768 5.127 1.366 2.142 2.187 4.397 4.294 6.47 6.53 2.93 6.23 5.937 12.434 8.822 18.681 2.534 10.188 5.175 20.356 7.642 30.556.75 6.926 1.583 13.851 2.281 20.777-.474 4.61-.836 9.246-1.38 13.838l-3.028 7.57c-1.266.622-2.483 1.44-3.78 1.942-1.21-.07-2.543.291-3.511-.637zm86.15 37.704c1.08-.485.395-1.384.103-2.191-1.822-4.847-3.781-9.65-5.516-14.524-3.682-14.72-7.448-29.422-11.078-44.154-2.326-11.985-4.73-23.963-7.008-35.953.03-5.531-.045-11.077.051-16.6.77-2.643 1.37-5.38 2.243-7.965l4.055-4.389h6.206c1.489 1.103 3.128 2.074 4.526 3.256 1.425 2.922 3.23 5.682 4.093 8.844 1.246 3.822 2.69 7.59 3.81 11.447 1.394 7.152 2.958 14.274 4.24 21.446 2.24 14.654 4.572 29.298 6.753 43.959.62 8.462 1.318 16.925 1.889 25.386l-1.177 9.942q43.427-3.75 86.854-7.497l-16.992-71.521c-3.886 3.81-7.703 7.71-11.63 11.464-3.297 1.738-6.521 3.66-9.863 5.284-3.878.984-7.743 2.07-11.629 2.99h-20.14c-1.21-5.552-2.508-11.093-3.663-16.651.036-7.329-.045-14.675.064-21.993 1.563-5.012 2.998-10.075 4.642-15.055 1.92-3.701 3.685-7.504 5.7-11.142 2.373-2.764 4.607-5.663 7.065-8.342l9.032-7.817c-5.071.129-10.108-.532-15.157-.893-12.726-1.02-25.447-2.134-38.175-3.094l-4.797-.013c.057-1.672.97-3.204 1.39-4.816.482-1.474.877-2.993 1.969-4.152l5.614-7.764c-3.338-.393-6.658-1.044-10.008-1.268-3.151.044-6.343-.088-9.47.066l-8.383 4.058c-2.285 3.513-4.673 6.977-6.893 10.52L949.912 389c-1.036.119-1.966.114-1.787-1.193L944.777 367c-1.334-.43-2.88-.268-4.297-.466l-27.188-2.034c1.897 2.86 3.982 5.61 5.762 8.54 2.27 4.588 4.66 9.13 6.856 13.748 2.411 7.672 4.91 15.322 7.267 23.008 5.024 25.448 9.99 50.908 14.859 76.386.435 2.644 1.162 5.26 1.41 7.922-.008 9.513.075 19.036.013 28.543-.958 4.069-1.747 8.188-2.81 12.225-.07.622-1.159 2.116-.56 2.166zM715.96 528.5l9.714-5.5h4.372c-.004-1.967-.853-3.83-1.218-5.752l-3.972-15.748c-.633-1.228-1.332-.433-2.029.294l-2.898 2.622c-1.126-.744-2.427-1.326-3.45-2.166-1.47-3.03-3.125-5.994-4.482-9.066-3.8-16.478-7.505-32.979-11.368-49.442-1.896-7.455-3.712-14.94-5.66-22.377-3.362-6.718-6.627-13.504-10.05-20.18l-11.373-12.086-14-6.595c-8.424-.49-14.038-.372-21.221 3.93-1.83 1.744-3.77 3.403-5.53 5.2-3.753 5.791-4.693 12.342-5.749 19.035.066 2.752-.132 5.526.104 8.262l2.024 11.622c6.84 1.599 13.72 3.04 20.535 4.741l3.04.862-.922-19.656 4.365-5.5c2.168.058 4.41-.116 6.534.086 1.677 1.251 3.571 2.267 5.108 3.672 1.24 1.492 2.559 2.931 3.322 4.742.994 1.972 2.182 3.896 3.057 5.898-.048 2.846.095 5.74-.071 8.555-.772 1.33-1.385 2.808-2.252 4.047-6.753 4.177-13.565 8.28-20.281 12.504-2.28 2.33-4.679 4.579-6.886 6.96-1.662 3.72-3.47 7.404-5.043 11.147-.285 5.284-.654 10.572-.886 15.853.869 5.436 1.59 10.908 2.55 16.32l5.202 14.716c12.079 1.105 24.175 2.124 36.243 3.283 1.747.654 3.728.847 5.126 2.187q8.816 6.48 17.631 12.962c1.165.25 2.038-.876 3.066-1.271zm-44.173-23.25c-1.136-1.34-2.736-2.37-3.244-4.131-1.157-2.753-2.53-5.446-3.551-8.237-.356-2.923-.893-5.863-1.136-8.776.889-2.544 1.615-5.19 2.605-7.67L681.276 462c.937.006 2.206-.32 1.77 1.057-.05 1.633-.041 3.258.487 4.823 1.493 6.42 3.078 12.828 4.513 19.255-.037 3.65.075 7.331-.056 10.965l-3.184 7.958c-1.266.622-2.483 1.439-3.78 1.942h-6.605zm88.745-195.68-62.655-7.774 3.424 69.168 61.99 1.036Zm-53.486 40.606c8.938-1.318 18.164-3.25 25.58-8.725 6.657-4.773 11.68-11.447 15.79-18.451.98-.18 1.779.113 2.386.906l7.744 6.928c-4.243 10.294-12.789 18.27-22.553 23.332-7.244 3.858-15.042 6.526-22.863 8.942zm11.025-23.806-14.88-8.772 7.637-8.763 18.094 11.155c.23.779 1.568 1.635.95 2.355l-6.326 7.619c-.913-.142-2.153.47-2.696-.524zm-25.525-20.87-71.088-13.631.548 67.697c23.687 2.829 47.375 5.66 71.069 8.434zm-69.352 52.839-.148-65.289 68.5 13.48.329 59.806zm40.44-2.464-7.588-31.717 16.547-.506-9.014 9.4 6.724 5.47c3.83-3.745 7.764-7.411 11.528-11.205l3.38-6.536-5.62-5.867-26.338 1.366-2.545-11.371c-.896-.66-1.857-1.136-2.992-1.13l-7.604-1.042 3.667 13.864-15.816.9 3.085 9.633c1.845-.521 3.66-1.222 5.61-1.12l9.773-.514 7.852 31.5zm-48.323.876-4.642-68.407-84.978-8.855L541.046 357zM552.046 339c11.61-.288 23.138-5.036 31.15-13.525 4.629-4.782 8.198-10.517 10.839-16.608a441 441 0 0 1 13.192 9.778c-2.551 9.678-9.173 17.986-17.663 23.176-8.728 5.484-18.72 8.454-28.627 10.997zm-14.339-24.006 4.681-9.994c9.28 3.994 18.567 7.988 27.658 12.399.077 1.246.017 2.467-.592 3.586l-2.68 7.015c-9.455-4.83-19.278-8.908-29.067-13.006m2.34-15.219 6.096-9.708c9.616 3.424 19.042 7.531 27.753 12.88L569.65 313c-5.372-3.188-11.254-5.424-16.95-7.96a942 942 0 0 0-12.654-5.265m38.91-2.803 8.025-1.994 8.064 10.202V308c-1.699.075-3.453-.148-5.118.108-.826.205-1.805.912-2.54.818zm11.09-1.202c.005-.936-.321-2.203 1.057-1.778 1.53.068 3.036-.034 4.485-.567.803.008 1.937-1.007 2.496-.242l9.094 11.163-7.904 2.635z" style="fill:url(#c)"/></svg>