<svg xmlns="http://www.w3.org/2000/svg" xmlns:xlink="http://www.w3.org/1999/xlink" xml:space="preserve" id="Layer_1" width="242.65" height="153.07" viewBox="0 0 242.65 153.07"><defs id="defs28"><linearGradient id="linear-gradient" x1="-247.8" x2="-247.8" y1="422.18" y2="269.11" gradientUnits="userSpaceOnUse"><stop id="stop1" offset="0" stop-color="#b6d558"/><stop id="stop2" offset="1" stop-color="#ee3f8f"/></linearGradient><linearGradient id="linear-gradient1" x1="-315.75" x2="-179.85" y1="365.64" y2="229.73" gradientUnits="userSpaceOnUse"><stop id="stop3" offset="0" stop-color="#231f20"/><stop id="stop4" offset=".17" stop-color="#252223"/><stop id="stop5" offset=".31" stop-color="#2e2b2d"/><stop id="stop6" offset=".43" stop-color="#3d3c3e"/><stop id="stop7" offset=".5" stop-color="#48484a"/><stop id="stop8" offset=".54" stop-color="#414142"/><stop id="stop9" offset=".69" stop-color="#302e2f"/><stop id="stop10" offset=".84" stop-color="#262223"/><stop id="stop11" offset="1" stop-color="#231f20"/></linearGradient><linearGradient id="linear-gradient2" x1="-315.52" x2="-180.08" y1="322.49" y2="322.49" gradientUnits="userSpaceOnUse"><stop id="stop12" offset="0" stop-color="#dff1fc"/><stop id="stop13" offset=".16" stop-color="#c5e9f6"/><stop id="stop14" offset=".32" stop-color="#ddeef7"/><stop id="stop15" offset=".5" stop-color="#c5e9f6"/><stop id="stop16" offset=".69" stop-color="#ddeef7"/><stop id="stop17" offset=".85" stop-color="#c5e9f6"/><stop id="stop18" offset="1" stop-color="#dff1fc"/></linearGradient><linearGradient id="linear-gradient3" x1="-315.52" x2="-180.08" y1="325.55" y2="325.55" gradientUnits="userSpaceOnUse"><stop id="stop19" offset="0" stop-color="#ffe7c3"/><stop id="stop20" offset=".2" stop-color="#fdfefc"/><stop id="stop21" offset=".42" stop-color="#ffe7c1"/><stop id="stop22" offset=".63" stop-color="#fdfbfd"/><stop id="stop23" offset=".83" stop-color="#fae4c0"/><stop id="stop24" offset="1" stop-color="#f4faf6"/></linearGradient><linearGradient xlink:href="#linear-gradient2" id="linear-gradient4" y1="328.61" y2="328.61"/><linearGradient xlink:href="#linear-gradient3" id="linear-gradient5" y1="331.68" y2="331.68"/><linearGradient xlink:href="#linear-gradient2" id="linear-gradient6" y1="334.74" y2="334.74"/><linearGradient xlink:href="#linear-gradient3" id="linear-gradient7" y1="337.81" y2="337.81"/><linearGradient xlink:href="#linear-gradient" id="linear-gradient8" x1="209.76" x2="209.76" y1="486.31" y2="333.24"/><linearGradient xlink:href="#linear-gradient1" id="linear-gradient9" x1="141.81" x2="277.72" y1="429.76" y2="293.86"/><linearGradient xlink:href="#linear-gradient2" id="linear-gradient10" x1="142.04" x2="277.49" y1="386.61" y2="386.61"/><linearGradient xlink:href="#linear-gradient3" id="linear-gradient11" x1="142.04" x2="277.49" y1="389.68" y2="389.68"/><linearGradient xlink:href="#linear-gradient2" id="linear-gradient12" x1="142.04" x2="277.49" y1="392.74" y2="392.74"/><linearGradient xlink:href="#linear-gradient3" id="linear-gradient13" x1="142.04" x2="277.49" y1="395.8" y2="395.8"/><linearGradient xlink:href="#linear-gradient2" id="linear-gradient14" x1="142.04" x2="277.49" y1="398.87" y2="398.87"/><linearGradient xlink:href="#linear-gradient3" id="linear-gradient15" x1="142.04" x2="277.49" y1="401.93" y2="401.93"/><linearGradient xlink:href="#linear-gradient" id="linear-gradient16" x1="208.82" x2="208.82" y1="278.67" y2="125.59"/><linearGradient id="linear-gradient17" x1="120.56" x2="154.73" y1="171.19" y2="205.36" gradientUnits="userSpaceOnUse"><stop id="stop26" offset="0" stop-color="#f5e88f"/><stop id="stop27" offset=".57" stop-color="#e2c28b"/><stop id="stop28" offset="1" stop-color="#f0e5b9"/></linearGradient><linearGradient xlink:href="#linear-gradient" id="linearGradient1" x1="-247.8" x2="-247.8" y1="422.18" y2="269.11" gradientUnits="userSpaceOnUse"/><linearGradient xlink:href="#linear-gradient1" id="linearGradient2" x1="-315.75" x2="-179.85" y1="365.64" y2="229.73" gradientUnits="userSpaceOnUse"/><linearGradient xlink:href="#linear-gradient2" id="linearGradient3" x1="-315.52" x2="-180.08" y1="322.49" y2="322.49" gradientUnits="userSpaceOnUse"/><linearGradient xlink:href="#linear-gradient3" id="linearGradient4" x1="-315.52" x2="-180.08" y1="325.55" y2="325.55" gradientUnits="userSpaceOnUse"/><linearGradient xlink:href="#linear-gradient" id="linear-gradient8-1" x1="209.76" x2="209.76" y1="486.31" y2="333.24"/><linearGradient xlink:href="#linear-gradient1" id="linear-gradient9-4" x1="141.81" x2="277.72" y1="429.76" y2="293.86"/><linearGradient xlink:href="#linear-gradient2" id="linear-gradient10-3" x1="142.04" x2="277.49" y1="386.61" y2="386.61"/><linearGradient xlink:href="#linear-gradient3" id="linear-gradient11-1" x1="142.04" x2="277.49" y1="389.68" y2="389.68"/><linearGradient xlink:href="#linear-gradient2" id="linear-gradient12-9" x1="142.04" x2="277.49" y1="392.74" y2="392.74"/><linearGradient xlink:href="#linear-gradient3" id="linear-gradient13-1" x1="142.04" x2="277.49" y1="395.8" y2="395.8"/><linearGradient xlink:href="#linear-gradient2" id="linear-gradient14-2" x1="142.04" x2="277.49" y1="398.87" y2="398.87"/><linearGradient xlink:href="#linear-gradient3" id="linear-gradient15-0" x1="142.04" x2="277.49" y1="401.93" y2="401.93"/><clipPath id="clippath"><rect id="rect1" width="242.65" height="153.07" x="-369.12" y="269.11" class="st0" rx="10.29" ry="10.29"/></clipPath><clipPath id="clippath-1"><rect id="rect24" width="242.65" height="153.07" x="88.44" y="333.24" class="st0" rx="10.29" ry="10.29"/></clipPath><clipPath id="clippath-2"><rect id="rect25" width="242.65" height="153.07" x="87.49" y="125.59" class="st0" rx="10.29" ry="10.29"/></clipPath><clipPath id="clippath-3"><rect id="rect26" width="43.71" height="30.38" x="115.79" y="173.09" class="st0" rx="4.91" ry="4.91"/></clipPath><clipPath id="clippath-1-4"><rect id="rect24-2" width="242.65" height="153.07" x="88.44" y="333.24" class="st0" rx="10.29" ry="10.29"/></clipPath><style id="style1">.st0{fill:none}.st14{fill:#231f20}.st26{fill:#c7dc62}.st30{fill:#e52b80}.st31{display:none}</style></defs><g id="g127" style="clip-path:url(#clippath-1)" transform="translate(-88.44 -333.24)"><rect id="rect44" width="242.65" height="153.07" x="88.44" y="333.24" rx="10.29" ry="10.29" style="fill:url(#linear-gradient8-1)"/><g id="g46"><path id="path44" d="M125.53 452.7c.95 0 1.98.05 3.09.16s2.23.34 3.34.7 2.19.87 3.23 1.54 1.95 1.56 2.74 2.67 1.43 2.49 1.91 4.13.72 3.59.72 5.87c0 1.91-.27 3.73-.8 5.46s-1.39 3.25-2.55 4.58c-1.17 1.32-2.67 2.37-4.53 3.15-1.85.78-4.09 1.17-6.73 1.17h-2.98V473h2.98q1.08 0 2.22-.24c.76-.16 1.46-.44 2.09-.83s1.15-.91 1.55-1.57.6-1.49.6-2.5c0-1.18-.23-2.11-.7-2.79a4.55 4.55 0 0 0-1.78-1.54c-.72-.34-1.52-.56-2.38-.65-.87-.09-1.7-.14-2.5-.14H95.62v-10.05h29.91z" class="st30" style="fill:#e52b80"/><path id="path45" d="M135.94 424.44c.96.83 1.76 1.69 2.38 2.59s1.12 1.84 1.48 2.8.61 1.94.76 2.94c.14.99.21 2 .21 3.01q0 2.31-.6 4.35c-.4 1.36-1.01 2.53-1.83 3.52s-1.85 1.78-3.1 2.35-2.73.86-4.45.86c-1.37 0-2.6-.21-3.68-.64a9.7 9.7 0 0 1-2.86-1.74c-.82-.73-1.53-1.59-2.12-2.58s-1.1-2.04-1.5-3.18c-.41-1.13-.73-2.31-.97-3.52a39 39 0 0 1-.74-7.03c-.01-1.1 0-2.1.02-3h-1.06c-.95 0-1.77.16-2.46.47s-1.26.74-1.72 1.28-.79 1.17-1 1.88c-.22.71-.33 1.46-.33 2.26 0 .46.05 1 .16 1.63.1.63.32 1.23.64 1.82s.78 1.12 1.37 1.59 1.36.8 2.33.96v9.01q-2.1-.39-3.69-1.23c-1.06-.56-1.98-1.23-2.76-2.02s-1.44-1.68-1.96-2.67c-.53-.99-.95-2.05-1.27-3.17s-.55-2.27-.69-3.48-.2-2.41-.2-3.64c0-1.86.2-3.63.6-5.3s1.04-3.12 1.93-4.37 2.04-2.24 3.46-2.97 3.16-1.1 5.2-1.1h14.33c1.11 0 2.34-.06 3.67-.19s2.79-.46 4.37-1l-.02 8.72c-.48.17-1.09.32-1.82.45s-1.42.24-2.06.33zm-11.92.72c-.03.58-.02 1.3.02 2.14a24.14 24.14 0 0 0 .93 5.48c.28.94.64 1.79 1.1 2.53.45.75 1 1.36 1.64 1.82.64.47 1.39.7 2.25.7q1.215 0 1.98-.48c.5-.32.89-.72 1.17-1.18.28-.47.47-.96.58-1.47.1-.51.16-.97.16-1.36.03-1.1-.14-2.15-.5-3.14s-.83-1.87-1.42-2.62-1.24-1.34-1.97-1.78-1.46-.65-2.18-.65h-3.75z" class="st30" style="fill:#e52b80"/><path id="path46" d="M107.02 409.47v-8.74h4.51c-1.19-.87-2.14-1.8-2.86-2.78s-1.26-1.95-1.65-2.93c-.38-.97-.64-1.91-.76-2.83s-.18-1.75-.18-2.5c0-2.13.32-3.92.97-5.39s1.54-2.65 2.67-3.56 2.48-1.56 4.03-1.96c1.55-.41 3.24-.61 5.06-.61h21.02v9.2h-18.49c-5.43 0-8.15 1.77-8.15 5.3 0 1.07.2 2.06.59 2.98q.585 1.38 1.86 2.4c.85.68 1.95 1.22 3.31 1.61 1.35.39 2.99.58 4.92.58h15.96v9.22h-32.82z" class="st30" style="fill:#e52b80"/></g><g id="g51"><path id="path47" d="M274.18 468.25c0-.89 0-1.86.03-2.92.02-1.05.08-2.1.17-3.15.1-1.05.25-2.05.46-3s.51-1.77.89-2.46c.41-.73.9-1.42 1.46-2.07a9.6 9.6 0 0 1 1.9-1.7c.71-.49 1.5-.87 2.35-1.15s1.79-.43 2.8-.43c.85 0 1.67.12 2.45.37s1.5.59 2.17 1.03 1.27.95 1.82 1.54c.54.59 1.01 1.22 1.4 1.89.27-1.15.71-2.15 1.31-3s1.31-1.56 2.13-2.12 1.7-.98 2.65-1.26 1.91-.41 2.87-.41c1.44 0 2.83.3 4.19.91 1.35.61 2.55 1.5 3.58 2.68 1.04 1.18 1.87 2.64 2.5 4.38s.94 3.72.94 5.97v19.75h-38.06v-14.87zm15.52-1.48c0-1.23-.11-2.27-.32-3.12s-.52-1.54-.91-2.07-.87-.91-1.43-1.14c-.56-.24-1.18-.35-1.87-.35-.92 0-1.66.17-2.23.52-.57.34-1.01.82-1.33 1.42s-.53 1.31-.64 2.13-.17 1.69-.17 2.62v7.56h8.9v-7.56zm15.91-2.65c0-.96-.13-1.81-.39-2.54-.26-.74-.62-1.35-1.08-1.84s-1-.87-1.63-1.12c-.63-.26-1.31-.39-2.05-.39-.84 0-1.56.2-2.15.61s-1.07.94-1.45 1.6-.65 1.41-.83 2.24-.26 1.67-.26 2.52v9.14h9.83v-10.21z" class="st26" style="fill:#c7dc62"/><path id="path48" d="M298.11 447.81c-2.28 0-4.36-.35-6.23-1.05s-3.48-1.68-4.82-2.95c-1.34-1.26-2.37-2.77-3.11-4.51-.73-1.74-1.1-3.66-1.1-5.75s.37-4.04 1.1-5.8 1.77-3.27 3.11-4.55c1.34-1.27 2.94-2.26 4.82-2.96 1.87-.7 3.95-1.05 6.23-1.05s4.36.35 6.23 1.05 3.48 1.69 4.82 2.96 2.37 2.79 3.11 4.55c.73 1.76 1.1 3.69 1.1 5.8s-.37 4.01-1.1 5.75-1.77 3.24-3.11 4.51-2.94 2.25-4.82 2.95c-1.87.7-3.95 1.05-6.23 1.05m0-7.53c1.14 0 2.26-.11 3.36-.34s2.08-.6 2.93-1.13 1.54-1.22 2.06-2.08.79-1.92.79-3.18-.26-2.38-.79-3.26a6.3 6.3 0 0 0-2.06-2.13c-.85-.54-1.83-.92-2.93-1.16-1.1-.23-2.22-.35-3.36-.35s-2.26.13-3.36.38-2.08.65-2.93 1.2a6.4 6.4 0 0 0-2.06 2.14c-.52.88-.79 1.93-.79 3.17s.26 2.27.79 3.12c.52.85 1.21 1.54 2.06 2.08.85.53 1.83.92 2.93 1.16s2.22.37 3.36.37z" class="st26" style="fill:#c7dc62"/><path id="path49" d="M298.11 416.87c-2.28 0-4.36-.35-6.23-1.05s-3.48-1.68-4.82-2.95c-1.34-1.26-2.37-2.77-3.11-4.51-.73-1.74-1.1-3.66-1.1-5.75s.37-4.04 1.1-5.8 1.77-3.27 3.11-4.55c1.34-1.27 2.94-2.26 4.82-2.96 1.87-.7 3.95-1.05 6.23-1.05s4.36.35 6.23 1.05 3.48 1.69 4.82 2.96 2.37 2.79 3.11 4.55c.73 1.76 1.1 3.69 1.1 5.8s-.37 4.01-1.1 5.75-1.77 3.24-3.11 4.51-2.94 2.25-4.82 2.95c-1.87.7-3.95 1.05-6.23 1.05m0-7.53c1.14 0 2.26-.11 3.36-.34s2.08-.6 2.93-1.13 1.54-1.22 2.06-2.08.79-1.92.79-3.18-.26-2.38-.79-3.26a6.3 6.3 0 0 0-2.06-2.13c-.85-.54-1.83-.92-2.93-1.16-1.1-.23-2.22-.35-3.36-.35s-2.26.13-3.36.38-2.08.65-2.93 1.2a6.4 6.4 0 0 0-2.06 2.14c-.52.88-.79 1.93-.79 3.17s.26 2.27.79 3.12c.52.85 1.21 1.54 2.06 2.08.85.53 1.83.92 2.93 1.16s2.22.37 3.36.37z" class="st26" style="fill:#c7dc62"/><path id="path50" d="M283.74 385.15v-7.2h3.6c-1.49-.97-2.58-2.19-3.27-3.67s-1.03-3.13-1.03-4.95c0-.85.1-1.69.29-2.49.2-.81.5-1.55.93-2.24.42-.68.96-1.28 1.62-1.81s1.45-.94 2.37-1.24c-.71-.31-1.38-.75-2.01-1.33a9.7 9.7 0 0 1-1.66-2.02c-.47-.76-.85-1.6-1.13-2.51s-.42-1.84-.42-2.8c0-1.49.18-2.86.53-4.1q.525-1.86 1.71-3.21t3.06-2.1c1.25-.5 2.76-.75 4.54-.75h18.39v7.59h-15.74c-.91 0-1.76.06-2.56.18q-1.2.18-2.07.69c-.59.34-1.05.81-1.39 1.42s-.51 1.41-.51 2.41c0 .92.23 1.7.69 2.35s1.05 1.18 1.77 1.58 1.52.69 2.41.88 1.76.28 2.6.28h14.79v7.66h-15.6c-.47 0-.95 0-1.46.03-.5.02-1.01.08-1.51.17-.5.1-.97.23-1.42.41q-.675.27-1.17.75c-.33.33-.6.73-.8 1.22s-.3 1.09-.3 1.79c0 .56.14 1.16.41 1.79s.7 1.21 1.3 1.75c.59.54 1.36.98 2.29 1.34s2.07.54 3.41.54h14.87v7.61h-27.53z" class="st26" style="fill:#c7dc62"/></g><path id="rect50" d="M88.44 347.23h242.65v29.16H88.44z" style="fill:url(#linear-gradient9-4)"/><g id="g126"><g id="g120"><path id="rect115" d="M142.04 384.83h135.45v3.55H142.04z" style="fill:url(#linear-gradient10-3)"/><path id="rect116" d="M142.04 388.39h135.45v2.57H142.04z" style="fill:url(#linear-gradient11-1)"/><path id="rect117" d="M142.04 390.96h135.45v3.55H142.04z" style="fill:url(#linear-gradient12-9)"/><path id="rect118" d="M142.04 394.52h135.45v2.57H142.04z" style="fill:url(#linear-gradient13-1)"/><path id="rect119" d="M142.04 397.09h135.45v3.55H142.04z" style="fill:url(#linear-gradient14-2)"/><path id="rect120" d="M142.04 400.64h135.45v2.57H142.04z" style="fill:url(#linear-gradient15-0)"/></g><g id="g125"><path id="path120" d="M245.19 391.8c-.57 0-1.02.18-1.34.54s-.49.88-.49 1.55.16 1.17.47 1.54.77.55 1.36.55c.2 0 .39-.02.59-.06s.38-.1.55-.18l.17.57c-.19.09-.4.16-.61.21-.22.05-.45.07-.71.07-.43 0-.8-.07-1.11-.2s-.57-.31-.77-.55c-.21-.24-.36-.52-.46-.85q-.15-.495-.15-1.11c0-.41.05-.76.16-1.09s.27-.62.48-.86.47-.42.78-.56c.31-.13.67-.2 1.07-.2.28 0 .51.02.71.06s.39.1.57.19l-.17.56c-.29-.13-.66-.2-1.1-.2z" class="st14" style="fill:#231f20"/><path id="path121" d="M250.79 391.27h.69l-1.91 5.25h-.69l-1.91-5.25h.69l1.14 3.18.41 1.35h.02l.41-1.35 1.14-3.18z" class="st14" style="fill:#231f20"/><path id="path122" d="M255.65 391.27h.69l-1.91 5.25h-.69l-1.91-5.25h.69l1.14 3.18.41 1.35h.02l.41-1.35 1.14-3.18z" class="st14" style="fill:#231f20"/><path id="path123" d="M260.58 391.99c-.22 0-.43.03-.64.08s-.4.12-.56.2l-.17-.56c.17-.08.37-.16.61-.23s.5-.1.78-.1c.57 0 .98.12 1.25.37s.4.58.4 1c0 .21-.04.42-.12.62s-.19.4-.32.59c-.14.19-.29.39-.48.58-.18.19-.38.38-.58.58l-.82.78h2.49v.62h-3.41v-.51l1.26-1.28c.21-.22.4-.41.56-.59.16-.17.3-.34.41-.49s.19-.3.25-.45.08-.3.08-.46c0-.26-.09-.45-.27-.58-.18-.12-.42-.19-.71-.19z" class="st14" style="fill:#231f20"/><path id="path124" d="M265.22 391.38c.52 0 .92.12 1.2.37s.42.57.42.99c0 .31-.08.56-.23.75-.15.2-.34.33-.57.4.13.03.25.07.37.14q.165.105.3.27c.09.11.15.24.21.38s.08.3.08.46c0 .45-.16.8-.47 1.06s-.75.39-1.3.39-.99-.13-1.3-.39-.47-.61-.47-1.06a1.34 1.34 0 0 1 .29-.84q.135-.165.3-.27c.11-.07.24-.12.37-.14-.23-.07-.42-.21-.57-.4s-.23-.44-.23-.75c0-.42.14-.74.42-.99s.68-.37 1.2-.37zm0 4.67c.35 0 .63-.08.82-.25s.3-.39.3-.67c0-.31-.09-.54-.27-.7s-.46-.23-.85-.23-.67.08-.85.23c-.18.16-.27.39-.27.7 0 .28.1.5.3.67s.47.25.83.25zm0-4.12c-.3 0-.54.07-.71.21s-.26.35-.26.63c0 .29.09.51.26.66s.41.23.72.23.54-.08.72-.23.26-.37.26-.66c0-.27-.09-.48-.26-.63-.17-.14-.41-.21-.71-.21z" class="st14" style="fill:#231f20"/><path id="path125" d="M269.43 396c.21 0 .4-.03.56-.08s.29-.13.4-.22q.165-.135.24-.33c.05-.13.08-.26.08-.41 0-.33-.09-.58-.28-.76s-.51-.27-.95-.27h-1.28v-.46l.2-2.01h2.68v.62h-2.1l-.12 1.24h.63c.62 0 1.09.15 1.42.44q.48.435.48 1.2t-.51 1.2c-.34.29-.81.44-1.42.44-.32 0-.61-.03-.85-.09a2.7 2.7 0 0 1-.63-.22l.17-.54c.15.07.33.13.55.19.21.05.46.08.75.08z" class="st14" style="fill:#231f20"/></g></g><text xml:space="preserve" id="text181" x="142.972" y="448.753" style="font-size:5.33333px;line-height:1.25;font-family:sans-serif"><tspan id="tspan181" x="142.972" y="448.753" style="font-size:5.33333px">The cardholder agrees to have fun at our wedding</tspan></text><text xml:space="preserve" id="text181-0" x="146.446" y="439.715" style="font-size:6.66667px;line-height:1.25;font-family:sans-serif"><tspan id="tspan181-7" x="146.446" y="439.715" style="font-style:normal;font-variant:normal;font-weight:700;font-stretch:normal;font-size:6.66667px;font-family:sans-serif;-inkscape-font-specification:&quot;sans-serif Bold&quot;">This card is issued by Jan &amp; Boom</tspan></text></g></svg>