<svg xmlns="http://www.w3.org/2000/svg" xmlns:xlink="http://www.w3.org/1999/xlink" xml:space="preserve" id="Layer_1" width="242.65" height="153.07" viewBox="0 0 242.65 153.07"><defs id="defs28"><linearGradient id="linear-gradient" x1="-247.8" x2="-247.8" y1="422.18" y2="269.11" gradientUnits="userSpaceOnUse"><stop id="stop1" offset="0" stop-color="#b6d558"/><stop id="stop2" offset="1" stop-color="#ee3f8f"/></linearGradient><linearGradient id="linear-gradient1" x1="-315.75" x2="-179.85" y1="365.64" y2="229.73" gradientUnits="userSpaceOnUse"><stop id="stop3" offset="0" stop-color="#231f20"/><stop id="stop4" offset=".17" stop-color="#252223"/><stop id="stop5" offset=".31" stop-color="#2e2b2d"/><stop id="stop6" offset=".43" stop-color="#3d3c3e"/><stop id="stop7" offset=".5" stop-color="#48484a"/><stop id="stop8" offset=".54" stop-color="#414142"/><stop id="stop9" offset=".69" stop-color="#302e2f"/><stop id="stop10" offset=".84" stop-color="#262223"/><stop id="stop11" offset="1" stop-color="#231f20"/></linearGradient><linearGradient id="linear-gradient2" x1="-315.52" x2="-180.08" y1="322.49" y2="322.49" gradientUnits="userSpaceOnUse"><stop id="stop12" offset="0" stop-color="#dff1fc"/><stop id="stop13" offset=".16" stop-color="#c5e9f6"/><stop id="stop14" offset=".32" stop-color="#ddeef7"/><stop id="stop15" offset=".5" stop-color="#c5e9f6"/><stop id="stop16" offset=".69" stop-color="#ddeef7"/><stop id="stop17" offset=".85" stop-color="#c5e9f6"/><stop id="stop18" offset="1" stop-color="#dff1fc"/></linearGradient><linearGradient id="linear-gradient3" x1="-315.52" x2="-180.08" y1="325.55" y2="325.55" gradientUnits="userSpaceOnUse"><stop id="stop19" offset="0" stop-color="#ffe7c3"/><stop id="stop20" offset=".2" stop-color="#fdfefc"/><stop id="stop21" offset=".42" stop-color="#ffe7c1"/><stop id="stop22" offset=".63" stop-color="#fdfbfd"/><stop id="stop23" offset=".83" stop-color="#fae4c0"/><stop id="stop24" offset="1" stop-color="#f4faf6"/></linearGradient><linearGradient xlink:href="#linear-gradient2" id="linear-gradient4" y1="328.61" y2="328.61"/><linearGradient xlink:href="#linear-gradient3" id="linear-gradient5" y1="331.68" y2="331.68"/><linearGradient xlink:href="#linear-gradient2" id="linear-gradient6" y1="334.74" y2="334.74"/><linearGradient xlink:href="#linear-gradient3" id="linear-gradient7" y1="337.81" y2="337.81"/><linearGradient xlink:href="#linear-gradient" id="linear-gradient8" x1="209.76" x2="209.76" y1="486.31" y2="333.24"/><linearGradient xlink:href="#linear-gradient1" id="linear-gradient9" x1="141.81" x2="277.72" y1="429.76" y2="293.86"/><linearGradient xlink:href="#linear-gradient2" id="linear-gradient10" x1="142.04" x2="277.49" y1="386.61" y2="386.61"/><linearGradient xlink:href="#linear-gradient3" id="linear-gradient11" x1="142.04" x2="277.49" y1="389.68" y2="389.68"/><linearGradient xlink:href="#linear-gradient2" id="linear-gradient12" x1="142.04" x2="277.49" y1="392.74" y2="392.74"/><linearGradient xlink:href="#linear-gradient3" id="linear-gradient13" x1="142.04" x2="277.49" y1="395.8" y2="395.8"/><linearGradient xlink:href="#linear-gradient2" id="linear-gradient14" x1="142.04" x2="277.49" y1="398.87" y2="398.87"/><linearGradient xlink:href="#linear-gradient3" id="linear-gradient15" x1="142.04" x2="277.49" y1="401.93" y2="401.93"/><linearGradient xlink:href="#linear-gradient" id="linear-gradient16" x1="208.82" x2="208.82" y1="278.67" y2="125.59"/><linearGradient xlink:href="#linear-gradient" id="linearGradient16" x1="-247.8" x2="-247.8" y1="422.18" y2="269.11" gradientUnits="userSpaceOnUse"/><linearGradient xlink:href="#linear-gradient1" id="linearGradient17" x1="-315.75" x2="-179.85" y1="365.64" y2="229.73" gradientUnits="userSpaceOnUse"/><linearGradient xlink:href="#linear-gradient2" id="linearGradient18" x1="-315.52" x2="-180.08" y1="322.49" y2="322.49" gradientUnits="userSpaceOnUse"/><linearGradient xlink:href="#linear-gradient3" id="linearGradient19" x1="-315.52" x2="-180.08" y1="325.55" y2="325.55" gradientUnits="userSpaceOnUse"/><linearGradient xlink:href="#linear-gradient" id="linear-gradient16-3" x1="208.82" x2="208.82" y1="278.67" y2="125.59"/><linearGradient xlink:href="#linearGradient5" id="linearGradient29" x1="113.316" x2="133.171" y1="130.219" y2="150.68" gradientUnits="userSpaceOnUse"/><linearGradient id="linearGradient5"><stop id="stop25" offset="0" style="stop-color:#fff;stop-opacity:1"/><stop id="stop29" offset="1" style="stop-color:#bfbfbf;stop-opacity:.94901961"/></linearGradient><linearGradient xlink:href="#linearGradient30" id="linearGradient31" x1="109.092" x2="122.986" y1="155.89" y2="164.166" gradientUnits="userSpaceOnUse"/><linearGradient id="linearGradient30"><stop id="stop30" offset="0" style="stop-color:#e0e0e0;stop-opacity:.94545456"/><stop id="stop31" offset="1" style="stop-color:#bfbfbf;stop-opacity:.89803922"/></linearGradient><linearGradient xlink:href="#linearGradient30" id="linearGradient33" x1="109.001" x2="118.72" y1="163.022" y2="167.035" gradientUnits="userSpaceOnUse"/><clipPath id="clippath"><rect id="rect1" width="242.65" height="153.07" x="-369.12" y="269.11" class="st0" rx="10.29" ry="10.29"/></clipPath><clipPath id="clippath-1"><rect id="rect24" width="242.65" height="153.07" x="88.44" y="333.24" class="st0" rx="10.29" ry="10.29"/></clipPath><clipPath id="clippath-2"><rect id="rect25" width="242.65" height="153.07" x="87.49" y="125.59" class="st0" rx="10.29" ry="10.29"/></clipPath><clipPath id="clippath-2-0"><rect id="rect25-9" width="242.65" height="153.07" x="87.49" y="125.59" class="st0" rx="10.29" ry="10.29"/></clipPath><style id="style1">.st0{fill:none}.st14{fill:#231f20}.st26{fill:#c7dc62}.st30{fill:#e52b80}</style></defs><g id="g181" clip-path="url(#clippath-2)" style="clip-path:url(#clippath-2)" transform="translate(-87.49 -125.59)"><g id="g2"><g id="g19"><rect id="rect127" width="242.65" height="153.07" x="87.49" y="125.59" rx="0" ry="0" style="fill:url(#linear-gradient16-3)"/><g id="g129"><path id="path127" d="M155.79 169.98c0 1.63-.09 3.4-.28 5.32-.18 1.91-.59 3.83-1.2 5.74q-.93 2.865-2.64 5.55c-1.14 1.78-2.68 3.36-4.59 4.71-1.92 1.36-4.29 2.45-7.1 3.28s-6.18 1.24-10.1 1.24c-3.29 0-6.41-.46-9.39-1.38-2.97-.92-5.59-2.38-7.87-4.39-2.27-2-4.08-4.6-5.42-7.78s-2.01-7.04-2.01-11.56v-5.12h15.7v5.12c0 1.24.14 2.52.42 3.82.28 1.31.75 2.5 1.42 3.59s1.57 1.97 2.7 2.66 2.56 1.03 4.3 1.03c2.02 0 3.62-.4 4.79-1.2s2.05-1.82 2.64-3.07c.59-1.24.97-2.61 1.12-4.09q.24-2.235.24-4.29v-50.61h17.27v51.42z" class="st30" style="fill:#e52b80"/><path id="path128" d="M204.37 187.87c-1.42 1.66-2.91 3.02-4.46 4.09a22.3 22.3 0 0 1-4.81 2.54c-1.65.62-3.34 1.05-5.05 1.3-1.71.24-3.43.37-5.17.37-2.66 0-5.15-.34-7.47-1.03s-4.34-1.73-6.05-3.14-3.06-3.19-4.04-5.34c-.99-2.15-1.48-4.7-1.48-7.64q0-3.525 1.11-6.33c.74-1.86 1.73-3.5 3-4.91 1.26-1.41 2.74-2.62 4.44-3.65q2.55-1.53 5.46-2.58c1.94-.7 3.96-1.25 6.05-1.67a68 68 0 0 1 12.09-1.28c1.89-.03 3.61-.01 5.17.04v-1.82q0-2.445-.81-4.23c-.54-1.19-1.28-2.17-2.21-2.95s-2.01-1.35-3.23-1.73c-1.22-.37-2.52-.56-3.88-.56-.79 0-1.72.09-2.8.27s-2.12.55-3.13 1.11-1.93 1.34-2.74 2.35c-.82 1.01-1.37 2.34-1.66 4h-15.5c.45-2.41 1.15-4.52 2.11-6.35.96-1.82 2.12-3.41 3.47-4.75s2.88-2.47 4.59-3.38c1.71-.9 3.52-1.63 5.44-2.19s3.91-.95 5.97-1.18 4.15-.35 6.25-.35c3.21 0 6.24.34 9.11 1.03s5.37 1.79 7.51 3.32 3.84 3.51 5.11 5.96c1.26 2.45 1.89 5.43 1.89 8.95v24.64c0 1.91.11 4.02.34 6.31.22 2.29.79 4.79 1.72 7.51l-14.99-.04c-.29-.83-.55-1.87-.77-3.12a92 92 0 0 1-.57-3.55zm-1.22-20.49c-1-.05-2.23-.04-3.69.04a44 44 0 0 0-4.59.51q-2.4.39-4.83 1.11c-1.62.48-3.07 1.11-4.36 1.88-1.29.78-2.33 1.71-3.14 2.81-.8 1.1-1.2 2.39-1.2 3.86 0 1.4.28 2.53.83 3.4s1.23 1.54 2.03 2.02q1.2.72 2.52.99c.88.18 1.66.27 2.35.27 1.89.05 3.69-.23 5.4-.85s3.21-1.44 4.5-2.45 2.31-2.14 3.06-3.4 1.12-2.5 1.12-3.74v-6.44z" class="st30" style="fill:#e52b80"/><path id="path129" d="M230.12 138.15h15.02v7.76c1.5-2.04 3.09-3.68 4.77-4.91s3.36-2.17 5.03-2.83 3.29-1.09 4.87-1.3 3.01-.31 4.3-.31c3.65 0 6.74.56 9.27 1.67 2.52 1.11 4.56 2.65 6.11 4.6s2.68 4.26 3.37 6.93c.7 2.67 1.04 5.56 1.04 8.69v36.13h-15.81V162.8c0-9.34-3.04-14.01-9.11-14.01-1.84 0-3.55.34-5.13 1.01s-2.95 1.74-4.12 3.2-2.09 3.36-2.76 5.69-1.01 5.15-1.01 8.46v27.44h-15.85v-56.43z" class="st30" style="fill:#e52b80"/></g><rect id="rect2" width="27.95" height="19.563" x="112.69" y="185.837" rx="3.842" ry="0" style="fill:#000;fill-opacity:.495455;stroke-width:2;stroke-linecap:round;stroke-linejoin:round;paint-order:stroke fill markers"/><g id="g133"><path id="path130" d="M112.78 210.64c1.55 0 3.23.02 5.06.05s3.65.13 5.47.3 3.55.43 5.2.79 3.08.88 4.27 1.55c1.27.72 2.46 1.56 3.59 2.53 1.12.97 2.11 2.07 2.95 3.31s1.51 2.6 2 4.08.74 3.1.74 4.86c0 1.48-.22 2.9-.65 4.25s-1.03 2.6-1.79 3.76q-1.14 1.74-2.67 3.15c-1.02.94-2.12 1.75-3.29 2.43 1.99.47 3.73 1.23 5.2 2.28 1.48 1.05 2.7 2.28 3.67 3.69.97 1.42 1.7 2.95 2.18 4.6s.72 3.31.72 4.97c0 2.5-.53 4.92-1.58 7.27-1.06 2.35-2.61 4.42-4.66 6.22s-4.58 3.24-7.59 4.33-6.46 1.64-10.35 1.64H86.97v-66.07h25.81zm2.57 26.95c2.13 0 3.94-.19 5.41-.56 1.48-.37 2.67-.9 3.59-1.59.91-.69 1.58-1.51 1.99-2.48s.61-2.05.61-3.24c0-1.6-.3-2.89-.9-3.88a6.2 6.2 0 0 0-2.46-2.31q-1.56-.825-3.69-1.11a34 34 0 0 0-4.55-.29h-13.11v15.45h13.11zm4.61 27.62c1.66 0 3.13-.22 4.41-.68 1.28-.45 2.34-1.07 3.2-1.87a7.8 7.8 0 0 0 1.95-2.83c.45-1.09.67-2.28.67-3.56 0-1.46-.35-2.7-1.06-3.73s-1.63-1.86-2.78-2.51-2.44-1.13-3.88-1.43q-2.16-.45-4.38-.45h-15.86v17.06h17.72z" class="st26" style="fill:#c7dc62"/><path id="path131" d="M148.26 252.18c0-3.96.61-7.57 1.83-10.82s2.92-6.04 5.12-8.36 4.8-4.12 7.83-5.39c3.02-1.27 6.35-1.91 9.98-1.91s7 .64 10.06 1.91c3.05 1.27 5.68 3.07 7.89 5.39s3.92 5.11 5.13 8.36c1.22 3.25 1.83 6.86 1.83 10.82s-.61 7.57-1.83 10.82-2.93 6.04-5.13 8.36c-2.21 2.32-4.84 4.12-7.89 5.39s-6.41 1.91-10.06 1.91-6.96-.64-9.98-1.91-5.63-3.07-7.83-5.39-3.9-5.11-5.12-8.36-1.83-6.86-1.83-10.82m13.07 0c0 1.98.2 3.93.59 5.84s1.04 3.61 1.96 5.09c.91 1.48 2.11 2.67 3.6 3.58s3.33 1.36 5.53 1.36 4.12-.46 5.66-1.36c1.53-.91 2.77-2.11 3.7-3.58.93-1.48 1.6-3.17 2-5.09.4-1.91.6-3.86.6-5.84s-.22-3.93-.65-5.84-1.13-3.61-2.09-5.09a11.3 11.3 0 0 0-3.72-3.58c-1.52-.91-3.36-1.36-5.51-1.36s-3.93.46-5.41 1.36c-1.48.91-2.68 2.11-3.6 3.58-.92 1.48-1.6 3.17-2.02 5.09-.42 1.91-.64 3.86-.64 5.84" class="st26" style="fill:#c7dc62"/><path id="path132" d="M201.96 252.18c0-3.96.61-7.57 1.83-10.82s2.92-6.04 5.12-8.36 4.8-4.12 7.83-5.39c3.02-1.27 6.35-1.91 9.98-1.91s7 .64 10.06 1.91c3.05 1.27 5.68 3.07 7.89 5.39s3.92 5.11 5.13 8.36c1.22 3.25 1.83 6.86 1.83 10.82s-.61 7.57-1.83 10.82-2.93 6.04-5.13 8.36c-2.21 2.32-4.84 4.12-7.89 5.39s-6.41 1.91-10.06 1.91-6.96-.64-9.98-1.91-5.63-3.07-7.83-5.39-3.9-5.11-5.12-8.36-1.83-6.86-1.83-10.82m13.08 0c0 1.98.2 3.93.59 5.84s1.04 3.61 1.96 5.09c.91 1.48 2.11 2.67 3.6 3.58s3.33 1.36 5.53 1.36 4.12-.46 5.66-1.36c1.53-.91 2.77-2.11 3.7-3.58.93-1.48 1.6-3.17 2-5.09.4-1.91.6-3.86.6-5.84s-.22-3.93-.65-5.84-1.13-3.61-2.09-5.09a11.3 11.3 0 0 0-3.72-3.58c-1.52-.91-3.36-1.36-5.51-1.36s-3.93.46-5.41 1.36c-1.48.91-2.68 2.11-3.6 3.58-.92 1.48-1.6 3.17-2.02 5.09-.42 1.91-.64 3.86-.64 5.84" class="st26" style="fill:#c7dc62"/><path id="path133" d="M257.02 227.24h12.5v6.25c1.68-2.58 3.8-4.47 6.37-5.67 2.57-1.19 5.43-1.79 8.59-1.79 1.48 0 2.92.17 4.33.51 1.4.34 2.7.88 3.88 1.61s2.23 1.67 3.13 2.81 1.63 2.51 2.16 4.11q.795-1.845 2.31-3.48a17 17 0 0 1 3.5-2.88 19 19 0 0 1 4.36-1.96q2.37-.72 4.86-.72c2.59 0 4.96.31 7.12.92s4.01 1.61 5.57 2.97c1.56 1.37 2.78 3.14 3.65 5.31s1.31 4.8 1.31 7.89v31.92h-13.17v-27.31c0-1.58-.11-3.06-.31-4.44-.21-1.38-.61-2.58-1.19-3.6-.59-1.02-1.41-1.82-2.47-2.42-1.06-.59-2.45-.89-4.18-.89q-2.385 0-4.08 1.2c-1.13.8-2.04 1.82-2.74 3.07s-1.21 2.65-1.53 4.19a22.2 22.2 0 0 0-.48 4.52v25.67h-13.3v-27.08c0-.81-.02-1.65-.05-2.53q-.045-1.32-.3-2.61c-.17-.87-.4-1.69-.71-2.46-.31-.78-.75-1.46-1.31-2.04s-1.27-1.05-2.12-1.4-1.89-.53-3.1-.53c-.97 0-2.01.24-3.1.71s-2.11 1.22-3.03 2.25c-.93 1.03-1.7 2.36-2.32 3.98s-.93 3.59-.93 5.92v25.8h-13.2v-47.79z" class="st26" style="fill:#c7dc62"/></g><g id="g172"><path id="path165" d="M281.61 261.59c.13.02.26.07.4.14q.195.105.36.27a1.3 1.3 0 0 1 .36.94c0 .25-.04.47-.12.68s-.21.38-.38.53-.39.26-.65.35-.57.12-.91.12h-2.16v-5.79h2.15c.3 0 .57.04.8.12s.42.18.58.32.27.3.35.49.12.4.12.62q0 .255-.09.45c-.06.13-.13.25-.21.35s-.18.18-.28.25-.2.12-.29.15zm-.96-.27c.15 0 .3-.02.43-.06s.25-.1.35-.18a.89.89 0 0 0 .33-.71c0-.28-.1-.49-.3-.64s-.47-.22-.82-.22h-1.42v1.81zm-.01 2.65c.43 0 .76-.09 1-.27s.36-.43.36-.76c0-.18-.03-.34-.1-.46a.9.9 0 0 0-.28-.3 1.3 1.3 0 0 0-.43-.17 2.4 2.4 0 0 0-.56-.05h-1.42v2h1.42z" class="st14" style="fill:#231f20"/><path id="path166" d="M285.96 264.72c-.67 0-1.21-.2-1.61-.59-.39-.39-.59-1-.59-1.82v-3.47h.74v3.48c0 .57.13 1 .38 1.28q.375.42 1.08.42t1.08-.42c.25-.28.38-.71.38-1.28v-3.48h.74v3.47c0 .82-.2 1.42-.59 1.82-.39.39-.93.59-1.61.59" class="st14" style="fill:#231f20"/><path id="path167" d="M290.83 264.72c-.37 0-.67-.03-.92-.09a2.8 2.8 0 0 1-.65-.24l.19-.61c.16.08.36.15.59.2.24.05.5.08.79.08q.315 0 .57-.06c.17-.04.32-.09.44-.17s.22-.18.29-.3a.87.87 0 0 0 .11-.44c0-.17-.04-.32-.11-.43a1.2 1.2 0 0 0-.3-.3 2 2 0 0 0-.43-.21l-.51-.18c-.17-.06-.35-.12-.54-.2s-.37-.18-.53-.3a1.45 1.45 0 0 1-.39-.46q-.15-.285-.15-.69c0-.22.04-.43.11-.62.08-.19.19-.35.36-.49s.37-.25.62-.33.55-.12.89-.12c.29 0 .54.03.77.08s.44.13.64.23l-.19.61a3 3 0 0 0-.56-.19c-.21-.04-.43-.07-.67-.07-.45 0-.77.08-.96.25s-.29.37-.29.63c0 .16.03.29.1.4s.16.2.28.28.25.15.41.21c.15.06.32.11.49.17.19.07.39.15.6.23s.39.19.55.33.3.29.4.49c.1.19.15.42.15.7s-.05.51-.15.72c-.1.2-.25.37-.43.51s-.41.23-.67.3c-.26.06-.55.09-.86.09z" class="st14" style="fill:#231f20"/><path id="path168" d="M294.82 264.63h-.74v-5.79h.74z" class="st14" style="fill:#231f20"/><path id="path169" d="M299.3 262.58a10 10 0 0 1 .56 1.04h.02q-.045-.3-.06-.6c0-.2-.01-.42-.01-.67v-3.51h.74v5.79h-.79l-2.3-3.73c-.12-.18-.22-.37-.32-.56q-.15-.285-.24-.48h-.02q.045.3.06.6c.01.2.01.42.01.67v3.51h-.74v-5.79h.79Z" class="st14" style="fill:#231f20"/><path id="path170" d="M301.93 258.84h3.54v.69h-2.8v1.77h2.63v.69h-2.63v1.97h2.85v.69h-3.59v-5.79z" class="st14" style="fill:#231f20"/><path id="path171" d="M307.93 264.72c-.37 0-.67-.03-.92-.09a2.8 2.8 0 0 1-.65-.24l.19-.61c.16.08.36.15.59.2.24.05.5.08.79.08q.315 0 .57-.06c.17-.04.32-.09.44-.17s.22-.18.29-.3a.87.87 0 0 0 .11-.44c0-.17-.04-.32-.11-.43a1.2 1.2 0 0 0-.3-.3 2 2 0 0 0-.43-.21l-.51-.18c-.17-.06-.35-.12-.54-.2s-.37-.18-.53-.3a1.45 1.45 0 0 1-.39-.46q-.15-.285-.15-.69c0-.22.04-.43.11-.62.08-.19.19-.35.36-.49s.37-.25.62-.33.55-.12.89-.12c.29 0 .54.03.77.08s.44.13.64.23l-.19.61a3 3 0 0 0-.56-.19c-.21-.04-.43-.07-.67-.07-.45 0-.77.08-.96.25s-.29.37-.29.63c0 .16.03.29.1.4s.16.2.28.28.25.15.41.21c.15.06.32.11.49.17.19.07.39.15.6.23s.39.19.55.33.3.29.4.49c.1.19.15.42.15.7s-.05.51-.15.72c-.1.2-.25.37-.43.51s-.41.23-.67.3c-.26.06-.55.09-.86.09z" class="st14" style="fill:#231f20"/><path id="path172" d="M312.48 264.72c-.37 0-.67-.03-.92-.09a2.8 2.8 0 0 1-.65-.24l.19-.61c.16.08.36.15.59.2.24.05.5.08.79.08q.315 0 .57-.06c.17-.04.32-.09.44-.17s.22-.18.29-.3a.87.87 0 0 0 .11-.44c0-.17-.04-.32-.11-.43a1.2 1.2 0 0 0-.3-.3 2 2 0 0 0-.43-.21l-.51-.18c-.17-.06-.35-.12-.54-.2s-.37-.18-.53-.3a1.45 1.45 0 0 1-.39-.46q-.15-.285-.15-.69c0-.22.04-.43.11-.62.08-.19.19-.35.36-.49s.37-.25.62-.33.55-.12.89-.12c.29 0 .54.03.77.08s.44.13.64.23l-.19.61a3 3 0 0 0-.56-.19c-.21-.04-.43-.07-.67-.07-.45 0-.77.08-.96.25s-.29.37-.29.63c0 .16.03.29.1.4s.16.2.28.28.25.15.41.21c.15.06.32.11.49.17.19.07.39.15.6.23s.39.19.55.33.3.29.4.49c.1.19.15.42.15.7s-.05.51-.15.72c-.1.2-.25.37-.43.51s-.41.23-.67.3c-.26.06-.55.09-.86.09z" class="st14" style="fill:#231f20"/></g><g id="g180" transform="translate(12 8)"><path id="path173" d="m171.38 237.11-1.34.38v-.83l1.58-.56h.84v5.57h1.49v.93h-4.11v-.94h1.54z" class="st14" style="fill:#231f20"/><path id="path174" d="M178.49 236.1h.9v4.42h.74v.88h-.74v1.2h-1.06v-1.2h-3.15v-.71zm-.14 4.42v-2.79l-1.99 2.79z" class="st14" style="fill:#231f20"/><path id="path175" d="M181.57 243h-.9l2.83-7.14h.91z" class="st14" style="fill:#231f20"/><path id="path176" d="M187.41 242.71c-.38 0-.72-.08-1.03-.23q-.465-.225-.78-.66c-.21-.29-.38-.64-.49-1.05s-.17-.89-.17-1.42.06-1 .17-1.42.28-.77.49-1.05q.315-.435.78-.66c.31-.15.65-.23 1.03-.23s.72.08 1.03.23q.465.225.78.66c.21.29.38.64.49 1.05s.17.89.17 1.42-.06 1-.17 1.42-.28.77-.49 1.05q-.315.435-.78.66c-.31.15-.65.23-1.03.23m0-.85q.66 0 1.02-.63c.24-.42.37-1.05.37-1.88s-.12-1.46-.37-1.88-.58-.63-1.02-.63-.78.21-1.03.63-.37 1.05-.37 1.88.12 1.46.37 1.88.58.63 1.03.63" class="st14" style="fill:#231f20"/><path id="path177" d="M193.67 236.87c-.52 0-.92.18-1.2.55s-.44.87-.47 1.51c.15-.15.37-.3.66-.44.28-.14.63-.2 1.04-.2.28 0 .54.04.79.13.24.09.46.22.63.4q.27.27.42.66c.1.26.16.57.16.91s-.05.63-.16.91a2.2 2.2 0 0 1-1.17 1.23q-.42.18-.93.18c-.79 0-1.4-.28-1.85-.83-.44-.55-.67-1.37-.67-2.46 0-.55.07-1.04.2-1.47s.31-.78.55-1.07.52-.51.85-.66.69-.23 1.09-.23c.32 0 .61.04.86.12q.375.12.69.3l-.26.82q-.555-.36-1.23-.36m-.17 2.29q-.495 0-.87.18c-.25.12-.47.26-.64.43 0 .33.04.63.12.88s.18.47.32.65c.13.18.28.31.45.4s.35.14.54.14c.35 0 .64-.12.87-.38s.34-.61.34-1.07c0-.17-.02-.33-.06-.49-.04-.15-.11-.28-.2-.39a.9.9 0 0 0-.35-.26c-.14-.06-.32-.1-.52-.1z" class="st14" style="fill:#231f20"/><path id="path178" d="M197.16 243h-.9l2.83-7.14h.91Z" class="st14" style="fill:#231f20"/><path id="path179" d="M203.41 236.87c-.52 0-.92.18-1.2.55s-.44.87-.47 1.51c.15-.15.37-.3.66-.44.28-.14.63-.2 1.04-.2.28 0 .54.04.79.13.24.09.46.22.63.4q.27.27.42.66c.1.26.16.57.16.91s-.05.63-.16.91a2.2 2.2 0 0 1-1.17 1.23q-.42.18-.93.18c-.79 0-1.4-.28-1.85-.83-.44-.55-.67-1.37-.67-2.46 0-.55.07-1.04.2-1.47s.31-.78.55-1.07.52-.51.85-.66.69-.23 1.09-.23c.32 0 .61.04.86.12q.375.12.69.3l-.26.82q-.555-.36-1.23-.36m-.17 2.29q-.495 0-.87.18c-.25.12-.47.26-.64.43 0 .33.04.63.12.88s.18.47.32.65c.13.18.28.31.45.4s.35.14.54.14c.35 0 .64-.12.87-.38s.34-.61.34-1.07c0-.17-.02-.33-.06-.49-.04-.15-.11-.28-.2-.39a.9.9 0 0 0-.35-.26c-.14-.06-.32-.1-.52-.1z" class="st14" style="fill:#231f20"/><path id="path180" d="M208.4 241.83q.855 0 1.26-.54c.28-.36.42-.86.44-1.51-.15.15-.37.29-.66.43s-.63.2-1.04.2c-.27 0-.53-.04-.78-.13-.24-.09-.45-.22-.63-.4q-.27-.27-.42-.66c-.1-.26-.16-.56-.16-.9s.05-.63.16-.92c.11-.28.26-.53.45-.74s.43-.38.71-.5q.42-.18.93-.18c.79 0 1.4.28 1.85.83.45.56.67 1.38.67 2.47s-.25 1.97-.74 2.55-1.16.87-2 .87c-.32 0-.62-.03-.89-.1-.28-.06-.53-.15-.75-.26l.26-.82c.19.1.39.18.62.23s.46.08.71.08zm.21-2.28q.495 0 .87-.18c.25-.12.46-.26.63-.43 0-.33-.04-.62-.12-.88s-.18-.48-.32-.65c-.13-.17-.28-.31-.45-.4s-.35-.14-.54-.14c-.35 0-.64.13-.87.38s-.34.61-.34 1.06c0 .17.02.34.07.49s.11.29.2.39c.09.11.21.2.35.26.15.06.32.09.52.09z" class="st14" style="fill:#231f20"/></g><g id="g182" transform="matrix(.77827 0 0 .65094 -12.723 66.632)"><g id="g183" transform="translate(53.939 47.76)"><g id="g184" transform="matrix(.7872 0 0 .78516 21.772 34.747)"><path id="path34-6" d="M109.113 134.687c.065-3.232 3.126-5.948 6.316-5.83 10.793.027 21.588-.067 32.38.027 2.569-.003 4.713 2.017 5.482 4.364-.009.133-.03.398-.038.53-2.315.225-4.65.116-6.965.375l1.354 1.195c-1.838 1.893-3.801 3.659-5.683 5.505l.015 1.545a61 61 0 0 1-2.433-.168c-.648 1.194-1.126 2.51-2.043 3.533l-12.023 12.292c-.864-2.03-1.97-4.658-2.058-6.872.475-1.074 1.422-1.867 1.905-2.929.056-.92-.003-1.843-.026-2.76-.369.88-.44 1.843-.752 2.743-.543.929-1.253 1.754-1.81 2.68-4.492.006-8.986.006-13.48.07-.324-5.428-.032-10.865-.141-16.3" style="fill:url(#linearGradient29);fill-opacity:.945455;stroke:none;stroke-width:.294877;stroke-opacity:1"/><path id="path35" d="M109.113 151.53c4.517-.011 9.038.142 13.558.095-.209 3.205 1.015 6.496 3.453 8.625-5.567-1.465-11.355-.637-17.032-.8q.007-3.96.02-7.92" style="fill:url(#linearGradient31);fill-opacity:.945455;stroke-width:.294877"/><path id="path36" d="M109 160.51c4.775-.018 14.12.34 14.12.34s-4.334 3.062-6.6 4.67c0 0-.849.209-3.131-.287-2.244-.578-3.589-2.698-4.388-4.724" style="fill:url(#linearGradient33);fill-opacity:.945455;stroke-width:.294877"/><path id="path85" d="M153.291 133.248c.67 2.978.319 6.057.345 9.08-3.886.07-7.776.188-11.662.07l-.015-1.545c1.882-1.846 3.845-3.612 5.683-5.505l-1.354-1.195c2.315-.259 4.65-.15 6.965-.374.01-.133.03-.398.038-.53" style="fill:#bfbfbf;fill-opacity:.95;stroke-width:.294877"/><path id="path86" d="M139.639 142.826c4.644.017 9.288.103 13.932.118.042 2.6.039 5.204.03 7.805q-6.66.046-13.317.136c-.755-1.153-1.701-2.206-2.226-3.492-.065-1.672.982-3.078 1.58-4.567" style="fill:#bfbfbf;fill-opacity:.95;stroke-width:.294877"/><path id="path87" d="M137.498 145.763c.07.737.08 1.48.059 2.22 3.016 3.144 2.079 8.84-1.587 11.067-3.43 1.967-8.25 1.468-10.975-1.475z" style="fill:#bfbfbf;fill-opacity:.95;stroke-width:.294877"/><path id="path88" d="M139.615 156.52c.57-1.542.646-3.203.846-4.816 4.382.298 8.773.236 13.16.242-.029 2.412-.017 4.822.01 7.234-3.394.15-6.794.073-10.191.1-2.294.012-4.494.755-6.759 1.02 1.059-1.188 2.356-2.25 2.934-3.78" style="fill:#bfbfbf;fill-opacity:.9;stroke-width:.294877"/><path id="path89" d="M132.694 161.208c2.713.068 5.461.207 8.127-.407 4.237-.522 8.516-.097 12.771-.235-.787 2.512-2.949 4.838-5.72 4.906-4.996.042-10 .165-14.992-.08-.147-1.391-.183-2.789-.186-4.184" style="fill:#bfbfbf;fill-opacity:.9;stroke-width:.294877"/><path id="path90" d="m116.42 165.572 6.576-4.644s4.886.174 7.33.272c-.014 1.427-.059 2.857-.056 4.287-4.623.075-13.85.085-13.85.085" style="fill:#bfbfbf;fill-opacity:.9;stroke-width:.294877"/></g></g></g><path id="path1" fill="none" stroke="#000" stroke-linecap="round" stroke-width="2.238" d="M313.383 236.114a18.65 18.65 0 0 1 0 18.651m-4.104-16.6a14.55 14.55 0 0 1 0 14.549m-3.916-12.665a10.52 10.631 0 0 1 0 10.632m-3.917-8.599a6.714 6.341 0 0 1 0 6.715" style="opacity:1;fill:none;stroke:#000;stroke-opacity:1"/><text xml:space="preserve" id="text2" x="160.355" y="246.928" style="font-size:5.33333px;line-height:0;font-family:sans-serif"><tspan id="tspan5" x="160.355" y="246.928" style="font-size:5.33333px;line-height:.9">VALID</tspan><tspan id="tspan3" x="160.355" y="251.728" style="font-size:5.33333px;line-height:.9">FROM</tspan></text><text xml:space="preserve" id="text1" x="111.365" y="223.683" style="font-size:16px;line-height:1.25;font-family:sans-serif"><tspan id="tspan1" x="111.365" y="223.683" style="font-style:normal;font-variant:normal;font-weight:400;font-stretch:normal;font-size:16px;line-height:1.25;font-family:Courier;-inkscape-font-specification:Courier">2026 0614 0739 1400</tspan></text></g></g></g></svg>